%TF.GenerationSoftware,KiCad,Pcbnew,(5.1.10-1-10_14)*%
%TF.CreationDate,2021-10-29T16:46:54+02:00*%
%TF.ProjectId,Proletariat,50726f6c-6574-4617-9269-61742e6b6963,rev?*%
%TF.SameCoordinates,Original*%
%TF.FileFunction,Soldermask,Bot*%
%TF.FilePolarity,Negative*%
%FSLAX46Y46*%
G04 Gerber Fmt 4.6, Leading zero omitted, Abs format (unit mm)*
G04 Created by KiCad (PCBNEW (5.1.10-1-10_14)) date 2021-10-29 16:46:54*
%MOMM*%
%LPD*%
G01*
G04 APERTURE LIST*
%ADD10O,1.500000X1.500000*%
%ADD11R,1.500000X1.500000*%
%ADD12O,1.700000X1.700000*%
%ADD13C,1.397000*%
%ADD14R,2.000000X2.000000*%
%ADD15C,2.000000*%
%ADD16R,3.000000X2.500000*%
%ADD17C,2.800000*%
%ADD18R,2.550000X2.500000*%
%ADD19C,1.750000*%
%ADD20C,4.000000*%
%ADD21C,3.000000*%
%ADD22C,1.600000*%
%ADD23R,1.600000X1.600000*%
%ADD24C,3.500000*%
%ADD25C,3.200000*%
%ADD26R,3.500000X3.500000*%
G04 APERTURE END LIST*
D10*
%TO.C,D0*%
X147193000Y-38481000D03*
D11*
X147193000Y-30861000D03*
%TD*%
D12*
%TO.C,SW30*%
X143814800Y-37109400D03*
X143814800Y-34569400D03*
X143814800Y-32029400D03*
%TD*%
D13*
%TO.C,OL2*%
X58039000Y-68453000D03*
X55499000Y-68453000D03*
X52959000Y-68453000D03*
X50419000Y-68453000D03*
%TD*%
%TO.C,OL1*%
X50419000Y-66294000D03*
X52959000Y-66294000D03*
X55499000Y-66294000D03*
X58039000Y-66294000D03*
%TD*%
D14*
%TO.C,SW29*%
X47244000Y-78740000D03*
D15*
X47244000Y-81240000D03*
X47244000Y-83740000D03*
D16*
X54744000Y-75640000D03*
X54744000Y-86840000D03*
%TD*%
D14*
%TO.C,SW28*%
X46990000Y-97790000D03*
D15*
X46990000Y-100290000D03*
X46990000Y-102790000D03*
D16*
X54490000Y-94690000D03*
X54490000Y-105890000D03*
%TD*%
D14*
%TO.C,SW32*%
X58166000Y-93345000D03*
D15*
X58166000Y-90845000D03*
X58166000Y-88345000D03*
D17*
X50666000Y-96445000D03*
X50666000Y-85245000D03*
%TD*%
D15*
%TO.C,SW31*%
X55880000Y-47140000D03*
X51380000Y-47140000D03*
X55880000Y-40640000D03*
X51380000Y-40640000D03*
%TD*%
D10*
%TO.C,D22*%
X46736000Y-143256000D03*
D11*
X46736000Y-135636000D03*
%TD*%
D10*
%TO.C,D24*%
X46736000Y-157988000D03*
D11*
X46736000Y-150368000D03*
%TD*%
D10*
%TO.C,D23*%
X49022000Y-158496000D03*
D11*
X49022000Y-150876000D03*
%TD*%
D10*
%TO.C,D21*%
X49022000Y-143764000D03*
D11*
X49022000Y-136144000D03*
%TD*%
D10*
%TO.C,D20*%
X46736000Y-128524000D03*
D11*
X46736000Y-120904000D03*
%TD*%
D10*
%TO.C,D19*%
X49022000Y-129032000D03*
D11*
X49022000Y-121412000D03*
%TD*%
D10*
%TO.C,D18*%
X51308000Y-159004000D03*
D11*
X51308000Y-151384000D03*
%TD*%
D10*
%TO.C,D17*%
X53594000Y-159512000D03*
D11*
X53594000Y-151892000D03*
%TD*%
D10*
%TO.C,D16*%
X51308000Y-144272000D03*
D11*
X51308000Y-136652000D03*
%TD*%
D10*
%TO.C,D15*%
X53594000Y-144780000D03*
D11*
X53594000Y-137160000D03*
%TD*%
D10*
%TO.C,D14*%
X51308000Y-129540000D03*
D11*
X51308000Y-121920000D03*
%TD*%
D10*
%TO.C,D13*%
X53594000Y-130048000D03*
D11*
X53594000Y-122428000D03*
%TD*%
D10*
%TO.C,D12*%
X55880000Y-160020000D03*
D11*
X55880000Y-152400000D03*
%TD*%
D10*
%TO.C,D11*%
X58166000Y-160528000D03*
D11*
X58166000Y-152908000D03*
%TD*%
D10*
%TO.C,D10*%
X55880000Y-145288000D03*
D11*
X55880000Y-137668000D03*
%TD*%
D10*
%TO.C,D9*%
X58166000Y-145796000D03*
D11*
X58166000Y-138176000D03*
%TD*%
D10*
%TO.C,D8*%
X55880000Y-130556000D03*
D11*
X55880000Y-122936000D03*
%TD*%
D10*
%TO.C,D7*%
X58166000Y-131064000D03*
D11*
X58166000Y-123444000D03*
%TD*%
D10*
%TO.C,D6*%
X60452000Y-161036000D03*
D11*
X60452000Y-153416000D03*
%TD*%
D10*
%TO.C,D5*%
X62738000Y-161544000D03*
D11*
X62738000Y-153924000D03*
%TD*%
D10*
%TO.C,D4*%
X60452000Y-146304000D03*
D11*
X60452000Y-138684000D03*
%TD*%
D10*
%TO.C,D3*%
X62738000Y-146812000D03*
D11*
X62738000Y-139192000D03*
%TD*%
D10*
%TO.C,D2*%
X60452000Y-131572000D03*
D11*
X60452000Y-123952000D03*
%TD*%
D10*
%TO.C,D1*%
X62738000Y-132080000D03*
D11*
X62738000Y-124460000D03*
%TD*%
D18*
%TO.C,SW2*%
X81661000Y-76073000D03*
X68734000Y-78613000D03*
D19*
X80899000Y-81153000D03*
X70739000Y-81153000D03*
D20*
X75819000Y-81153000D03*
D21*
X78359000Y-76073000D03*
X72009000Y-78613000D03*
%TD*%
D18*
%TO.C,SW3*%
X81661000Y-95123000D03*
X68734000Y-97663000D03*
D19*
X80899000Y-100203000D03*
X70739000Y-100203000D03*
D20*
X75819000Y-100203000D03*
D21*
X78359000Y-95123000D03*
X72009000Y-97663000D03*
%TD*%
D18*
%TO.C,SW4*%
X81661000Y-114173000D03*
X68734000Y-116713000D03*
D19*
X80899000Y-119253000D03*
X70739000Y-119253000D03*
D20*
X75819000Y-119253000D03*
D21*
X78359000Y-114173000D03*
X72009000Y-116713000D03*
%TD*%
D18*
%TO.C,SW5*%
X81661000Y-133223000D03*
X68734000Y-135763000D03*
D19*
X80899000Y-138303000D03*
X70739000Y-138303000D03*
D20*
X75819000Y-138303000D03*
D21*
X78359000Y-133223000D03*
X72009000Y-135763000D03*
%TD*%
D18*
%TO.C,SW6*%
X81661000Y-152273000D03*
X68734000Y-154813000D03*
D19*
X80899000Y-157353000D03*
X70739000Y-157353000D03*
D20*
X75819000Y-157353000D03*
D21*
X78359000Y-152273000D03*
X72009000Y-154813000D03*
%TD*%
D18*
%TO.C,SW7*%
X79502000Y-162433000D03*
X92429000Y-159893000D03*
D19*
X80264000Y-157353000D03*
X90424000Y-157353000D03*
D20*
X85344000Y-157353000D03*
D21*
X82804000Y-162433000D03*
X89154000Y-159893000D03*
%TD*%
D18*
%TO.C,SW8*%
X100711000Y-57023000D03*
X87784000Y-59563000D03*
D19*
X99949000Y-62103000D03*
X89789000Y-62103000D03*
D20*
X94869000Y-62103000D03*
D21*
X97409000Y-57023000D03*
X91059000Y-59563000D03*
%TD*%
D18*
%TO.C,SW9*%
X100711000Y-76073000D03*
X87784000Y-78613000D03*
D19*
X99949000Y-81153000D03*
X89789000Y-81153000D03*
D20*
X94869000Y-81153000D03*
D21*
X97409000Y-76073000D03*
X91059000Y-78613000D03*
%TD*%
D18*
%TO.C,SW10*%
X100711000Y-95123000D03*
X87784000Y-97663000D03*
D19*
X99949000Y-100203000D03*
X89789000Y-100203000D03*
D20*
X94869000Y-100203000D03*
D21*
X97409000Y-95123000D03*
X91059000Y-97663000D03*
%TD*%
D18*
%TO.C,SW13*%
X100711000Y-152273000D03*
X87784000Y-154813000D03*
D19*
X99949000Y-157353000D03*
X89789000Y-157353000D03*
D20*
X94869000Y-157353000D03*
D21*
X97409000Y-152273000D03*
X91059000Y-154813000D03*
%TD*%
D18*
%TO.C,SW14*%
X119761000Y-57023000D03*
X106834000Y-59563000D03*
D19*
X118999000Y-62103000D03*
X108839000Y-62103000D03*
D20*
X113919000Y-62103000D03*
D21*
X116459000Y-57023000D03*
X110109000Y-59563000D03*
%TD*%
D18*
%TO.C,SW15*%
X119761000Y-76073000D03*
X106834000Y-78613000D03*
D19*
X118999000Y-81153000D03*
X108839000Y-81153000D03*
D20*
X113919000Y-81153000D03*
D21*
X116459000Y-76073000D03*
X110109000Y-78613000D03*
%TD*%
D18*
%TO.C,SW16*%
X119761000Y-95123000D03*
X106834000Y-97663000D03*
D19*
X118999000Y-100203000D03*
X108839000Y-100203000D03*
D20*
X113919000Y-100203000D03*
D21*
X116459000Y-95123000D03*
X110109000Y-97663000D03*
%TD*%
D18*
%TO.C,SW17*%
X119761000Y-114173000D03*
X106834000Y-116713000D03*
D19*
X118999000Y-119253000D03*
X108839000Y-119253000D03*
D20*
X113919000Y-119253000D03*
D21*
X116459000Y-114173000D03*
X110109000Y-116713000D03*
%TD*%
D18*
%TO.C,SW18*%
X119761000Y-133223000D03*
X106834000Y-135763000D03*
D19*
X118999000Y-138303000D03*
X108839000Y-138303000D03*
D20*
X113919000Y-138303000D03*
D21*
X116459000Y-133223000D03*
X110109000Y-135763000D03*
%TD*%
D18*
%TO.C,SW19*%
X119761000Y-152273000D03*
X106834000Y-154813000D03*
D19*
X118999000Y-157353000D03*
X108839000Y-157353000D03*
D20*
X113919000Y-157353000D03*
D21*
X116459000Y-152273000D03*
X110109000Y-154813000D03*
%TD*%
D18*
%TO.C,SW20*%
X138811000Y-57023000D03*
X125884000Y-59563000D03*
D19*
X138049000Y-62103000D03*
X127889000Y-62103000D03*
D20*
X132969000Y-62103000D03*
D21*
X135509000Y-57023000D03*
X129159000Y-59563000D03*
%TD*%
D18*
%TO.C,SW21*%
X138811000Y-76073000D03*
X125884000Y-78613000D03*
D19*
X138049000Y-81153000D03*
X127889000Y-81153000D03*
D20*
X132969000Y-81153000D03*
D21*
X135509000Y-76073000D03*
X129159000Y-78613000D03*
%TD*%
D18*
%TO.C,SW22*%
X138811000Y-95123000D03*
X125884000Y-97663000D03*
D19*
X138049000Y-100203000D03*
X127889000Y-100203000D03*
D20*
X132969000Y-100203000D03*
D21*
X135509000Y-95123000D03*
X129159000Y-97663000D03*
%TD*%
D18*
%TO.C,SW23*%
X138811000Y-114173000D03*
X125884000Y-116713000D03*
D19*
X138049000Y-119253000D03*
X127889000Y-119253000D03*
D20*
X132969000Y-119253000D03*
D21*
X135509000Y-114173000D03*
X129159000Y-116713000D03*
%TD*%
D18*
%TO.C,SW24*%
X138811000Y-133223000D03*
X125884000Y-135763000D03*
D19*
X138049000Y-138303000D03*
X127889000Y-138303000D03*
D20*
X132969000Y-138303000D03*
D21*
X135509000Y-133223000D03*
X129159000Y-135763000D03*
%TD*%
D18*
%TO.C,SW25*%
X138811000Y-152273000D03*
X125884000Y-154813000D03*
D19*
X138049000Y-157353000D03*
X127889000Y-157353000D03*
D20*
X132969000Y-157353000D03*
D21*
X135509000Y-152273000D03*
X129159000Y-154813000D03*
%TD*%
D18*
%TO.C,SW26*%
X138811000Y-104648000D03*
X125884000Y-107188000D03*
D19*
X138049000Y-109728000D03*
X127889000Y-109728000D03*
D20*
X132969000Y-109728000D03*
D21*
X135509000Y-104648000D03*
X129159000Y-107188000D03*
%TD*%
D18*
%TO.C,SW27*%
X138811000Y-142748000D03*
X125884000Y-145288000D03*
D19*
X138049000Y-147828000D03*
X127889000Y-147828000D03*
D20*
X132969000Y-147828000D03*
D21*
X135509000Y-142748000D03*
X129159000Y-145288000D03*
%TD*%
D18*
%TO.C,SW1*%
X81661000Y-57023000D03*
X68734000Y-59563000D03*
D19*
X80899000Y-62103000D03*
X70739000Y-62103000D03*
D20*
X75819000Y-62103000D03*
D21*
X78359000Y-57023000D03*
X72009000Y-59563000D03*
%TD*%
D22*
%TO.C,U1*%
X61722000Y-33020000D03*
X61722000Y-35560000D03*
X61722000Y-38100000D03*
X61722000Y-40640000D03*
X61722000Y-43180000D03*
X61722000Y-45720000D03*
X61722000Y-48260000D03*
X61722000Y-50800000D03*
X61722000Y-53340000D03*
X61722000Y-55880000D03*
X61722000Y-58420000D03*
X61722000Y-60960000D03*
X46482000Y-60960000D03*
X46482000Y-58420000D03*
X46482000Y-55880000D03*
X46482000Y-53340000D03*
X46482000Y-50800000D03*
X46482000Y-48260000D03*
X46482000Y-45720000D03*
X46482000Y-43180000D03*
X46482000Y-40640000D03*
X46482000Y-38100000D03*
X46482000Y-35560000D03*
D23*
X46482000Y-33020000D03*
%TD*%
D18*
%TO.C,SW12*%
X100711000Y-133223000D03*
X87784000Y-135763000D03*
D19*
X99949000Y-138303000D03*
X89789000Y-138303000D03*
D20*
X94869000Y-138303000D03*
D21*
X97409000Y-133223000D03*
X91059000Y-135763000D03*
%TD*%
D24*
%TO.C,H1*%
X135890000Y-36830000D03*
%TD*%
%TO.C,H2*%
X104394000Y-109728000D03*
%TD*%
%TO.C,H3*%
X53848000Y-36830000D03*
%TD*%
%TO.C,H4*%
X48260000Y-165100000D03*
%TD*%
%TO.C,H5*%
X72390000Y-71628000D03*
%TD*%
%TO.C,H6*%
X144780000Y-165100000D03*
%TD*%
D18*
%TO.C,SW11*%
X100711000Y-114173000D03*
X87784000Y-116713000D03*
D19*
X99949000Y-119253000D03*
X89789000Y-119253000D03*
D20*
X94869000Y-119253000D03*
D21*
X97409000Y-114173000D03*
X91059000Y-116713000D03*
%TD*%
D25*
%TO.C,BT1*%
X76080000Y-40640000D03*
X131690000Y-40640000D03*
D26*
X140335000Y-40640000D03*
D24*
X68335000Y-40640000D03*
%TD*%
%TO.C,H7*%
X135890000Y-71628000D03*
%TD*%
%TO.C,H8*%
X72390000Y-128778000D03*
%TD*%
%TO.C,H9*%
X135890000Y-128778000D03*
%TD*%
%TO.C,H10*%
X104394000Y-150622000D03*
%TD*%
M02*
