%TF.GenerationSoftware,KiCad,Pcbnew,(5.1.10-1-10_14)*%
%TF.CreationDate,2021-10-29T16:46:54+02:00*%
%TF.ProjectId,Proletariat,50726f6c-6574-4617-9269-61742e6b6963,rev?*%
%TF.SameCoordinates,Original*%
%TF.FileFunction,Legend,Top*%
%TF.FilePolarity,Positive*%
%FSLAX46Y46*%
G04 Gerber Fmt 4.6, Leading zero omitted, Abs format (unit mm)*
G04 Created by KiCad (PCBNEW (5.1.10-1-10_14)) date 2021-10-29 16:46:54*
%MOMM*%
%LPD*%
G01*
G04 APERTURE LIST*
%ADD10C,0.200000*%
%ADD11C,0.100000*%
%ADD12C,0.150000*%
%ADD13C,0.050000*%
%ADD14C,0.070000*%
%ADD15C,0.040000*%
%ADD16C,0.120000*%
%ADD17C,0.080000*%
%ADD18O,1.500000X1.500000*%
%ADD19R,1.500000X1.500000*%
%ADD20O,1.700000X1.700000*%
%ADD21R,2.000000X2.000000*%
%ADD22C,2.000000*%
%ADD23R,3.000000X2.500000*%
%ADD24C,2.800000*%
%ADD25C,1.750000*%
%ADD26C,4.000000*%
%ADD27C,3.000000*%
%ADD28C,1.600000*%
%ADD29R,1.600000X1.600000*%
%ADD30C,3.500000*%
%ADD31C,3.200000*%
%ADD32R,3.500000X3.500000*%
G04 APERTURE END LIST*
D10*
X50800000Y-119380000D02*
X58420000Y-119380000D01*
X50800000Y-107950000D02*
X58420000Y-107950000D01*
D11*
G36*
X54660800Y-118757700D02*
G01*
X53721000Y-118745000D01*
X53086000Y-118618000D01*
X52451000Y-118364000D01*
X51816000Y-117983000D01*
X51181000Y-117475000D01*
X50673000Y-116967000D01*
X49911000Y-115697000D01*
X49657000Y-114935000D01*
X49530000Y-114427000D01*
X49530000Y-113030000D01*
X49784000Y-111887000D01*
X50165000Y-111125000D01*
X50546000Y-110490000D01*
X51181000Y-109855000D01*
X51816000Y-109347000D01*
X53086000Y-108839000D01*
X54660800Y-108623100D01*
X54660800Y-118757700D01*
G37*
X54660800Y-118757700D02*
X53721000Y-118745000D01*
X53086000Y-118618000D01*
X52451000Y-118364000D01*
X51816000Y-117983000D01*
X51181000Y-117475000D01*
X50673000Y-116967000D01*
X49911000Y-115697000D01*
X49657000Y-114935000D01*
X49530000Y-114427000D01*
X49530000Y-113030000D01*
X49784000Y-111887000D01*
X50165000Y-111125000D01*
X50546000Y-110490000D01*
X51181000Y-109855000D01*
X51816000Y-109347000D01*
X53086000Y-108839000D01*
X54660800Y-108623100D01*
X54660800Y-118757700D01*
D12*
X59729534Y-113665000D02*
G75*
G03*
X59729534Y-113665000I-5119534J0D01*
G01*
D10*
X49530000Y-108585000D02*
X59690000Y-108585000D01*
X48260000Y-109855000D02*
X60960000Y-109855000D01*
X46990000Y-111125000D02*
X62230000Y-111125000D01*
X45720000Y-112395000D02*
X63500000Y-112395000D01*
X45085000Y-113665000D02*
X64135000Y-113665000D01*
X45720000Y-114935000D02*
X63500000Y-114935000D01*
X46990000Y-116205000D02*
X62230000Y-116205000D01*
X48260000Y-117475000D02*
X60960000Y-117475000D01*
X49530000Y-118745000D02*
X59690000Y-118745000D01*
D11*
G36*
X147955000Y-76835000D02*
G01*
X145796000Y-75692000D01*
X147955000Y-74295000D01*
X147955000Y-76835000D01*
G37*
X147955000Y-76835000D02*
X145796000Y-75692000D01*
X147955000Y-74295000D01*
X147955000Y-76835000D01*
D10*
X147955000Y-158115000D02*
X144145000Y-156210000D01*
X147955000Y-151765000D02*
X144145000Y-149860000D01*
X147955000Y-155575000D02*
X144145000Y-153670000D01*
X147955000Y-153035000D02*
X144145000Y-151130000D01*
X147955000Y-159385000D02*
X144145000Y-157480000D01*
X147955000Y-161925000D02*
X144145000Y-160020000D01*
X147955000Y-156845000D02*
X144145000Y-154940000D01*
X147955000Y-154305000D02*
X144145000Y-152400000D01*
X147955000Y-160655000D02*
X144145000Y-158750000D01*
X147955000Y-150495000D02*
X144145000Y-148590000D01*
X147955000Y-145415000D02*
X144145000Y-143510000D01*
X147955000Y-139065000D02*
X144145000Y-137160000D01*
X147955000Y-142875000D02*
X144145000Y-140970000D01*
X147955000Y-140335000D02*
X144145000Y-138430000D01*
X147955000Y-146685000D02*
X144145000Y-144780000D01*
X147955000Y-149225000D02*
X144145000Y-147320000D01*
X147955000Y-144145000D02*
X144145000Y-142240000D01*
X147955000Y-141605000D02*
X144145000Y-139700000D01*
X147955000Y-147955000D02*
X144145000Y-146050000D01*
X147955000Y-137795000D02*
X144145000Y-135890000D01*
X147955000Y-132715000D02*
X144145000Y-130810000D01*
X147955000Y-126365000D02*
X144145000Y-124460000D01*
X147955000Y-130175000D02*
X144145000Y-128270000D01*
X147955000Y-127635000D02*
X144145000Y-125730000D01*
X147955000Y-133985000D02*
X144145000Y-132080000D01*
X147955000Y-136525000D02*
X144145000Y-134620000D01*
X147955000Y-131445000D02*
X144145000Y-129540000D01*
X147955000Y-128905000D02*
X144145000Y-127000000D01*
X147955000Y-135255000D02*
X144145000Y-133350000D01*
X147955000Y-125095000D02*
X144145000Y-123190000D01*
X147955000Y-120015000D02*
X144145000Y-118110000D01*
X147955000Y-113665000D02*
X144145000Y-111760000D01*
X147955000Y-117475000D02*
X144145000Y-115570000D01*
X147955000Y-114935000D02*
X144145000Y-113030000D01*
X147955000Y-121285000D02*
X144145000Y-119380000D01*
X147955000Y-123825000D02*
X144145000Y-121920000D01*
X147955000Y-118745000D02*
X144145000Y-116840000D01*
X147955000Y-116205000D02*
X144145000Y-114300000D01*
X147955000Y-122555000D02*
X144145000Y-120650000D01*
X147955000Y-112395000D02*
X144145000Y-110490000D01*
X147955000Y-107315000D02*
X144145000Y-105410000D01*
X147955000Y-100965000D02*
X144145000Y-99060000D01*
X147955000Y-104775000D02*
X144145000Y-102870000D01*
X147955000Y-102235000D02*
X144145000Y-100330000D01*
X147955000Y-108585000D02*
X144145000Y-106680000D01*
X147955000Y-111125000D02*
X144145000Y-109220000D01*
X147955000Y-106045000D02*
X144145000Y-104140000D01*
X147955000Y-103505000D02*
X144145000Y-101600000D01*
X147955000Y-109855000D02*
X144145000Y-107950000D01*
X147955000Y-99695000D02*
X144145000Y-97790000D01*
X147955000Y-98425000D02*
X144145000Y-96520000D01*
X147955000Y-97155000D02*
X144145000Y-95250000D01*
X147955000Y-95885000D02*
X144145000Y-93980000D01*
X147955000Y-94615000D02*
X144145000Y-92710000D01*
X147955000Y-78105000D02*
X144145000Y-76200000D01*
X147955000Y-79375000D02*
X144145000Y-77470000D01*
X147955000Y-80645000D02*
X144145000Y-78740000D01*
X147955000Y-81915000D02*
X144145000Y-80010000D01*
X147955000Y-93345000D02*
X144145000Y-91440000D01*
X147955000Y-92075000D02*
X144145000Y-90170000D01*
X147955000Y-90805000D02*
X144145000Y-88900000D01*
X147955000Y-89535000D02*
X144145000Y-87630000D01*
X147955000Y-83185000D02*
X144145000Y-81280000D01*
X147955000Y-84455000D02*
X144145000Y-82550000D01*
X147955000Y-88265000D02*
X144145000Y-86360000D01*
X147955000Y-86995000D02*
X144145000Y-85090000D01*
X147955000Y-85725000D02*
X144145000Y-83820000D01*
X147955000Y-73025000D02*
X144145000Y-75565000D01*
X147955000Y-65405000D02*
X144145000Y-67945000D01*
X147955000Y-69215000D02*
X144145000Y-71755000D01*
X147955000Y-67945000D02*
X144145000Y-70485000D01*
X147955000Y-64135000D02*
X144145000Y-66675000D01*
X147955000Y-66675000D02*
X144145000Y-69215000D01*
X147955000Y-70485000D02*
X144145000Y-73025000D01*
X147955000Y-71755000D02*
X144145000Y-74295000D01*
X147955000Y-62865000D02*
X144145000Y-65405000D01*
X147955000Y-61595000D02*
X144145000Y-64135000D01*
X147955000Y-60325000D02*
X144145000Y-62865000D01*
X147955000Y-59055000D02*
X144145000Y-61595000D01*
X147955000Y-57785000D02*
X144145000Y-60325000D01*
X147955000Y-56515000D02*
X144145000Y-59055000D01*
X147955000Y-55245000D02*
X144145000Y-57785000D01*
X147955000Y-53975000D02*
X144145000Y-56515000D01*
X147955000Y-52705000D02*
X144145000Y-55245000D01*
D11*
X51847952Y-44267380D02*
X51847952Y-43600714D01*
X51847952Y-43791190D02*
X51895571Y-43695952D01*
X51943190Y-43648333D01*
X52038428Y-43600714D01*
X52133666Y-43600714D01*
X52847952Y-44219761D02*
X52752714Y-44267380D01*
X52562238Y-44267380D01*
X52467000Y-44219761D01*
X52419380Y-44124523D01*
X52419380Y-43743571D01*
X52467000Y-43648333D01*
X52562238Y-43600714D01*
X52752714Y-43600714D01*
X52847952Y-43648333D01*
X52895571Y-43743571D01*
X52895571Y-43838809D01*
X52419380Y-43934047D01*
X53276523Y-44219761D02*
X53371761Y-44267380D01*
X53562238Y-44267380D01*
X53657476Y-44219761D01*
X53705095Y-44124523D01*
X53705095Y-44076904D01*
X53657476Y-43981666D01*
X53562238Y-43934047D01*
X53419380Y-43934047D01*
X53324142Y-43886428D01*
X53276523Y-43791190D01*
X53276523Y-43743571D01*
X53324142Y-43648333D01*
X53419380Y-43600714D01*
X53562238Y-43600714D01*
X53657476Y-43648333D01*
X54514619Y-44219761D02*
X54419380Y-44267380D01*
X54228904Y-44267380D01*
X54133666Y-44219761D01*
X54086047Y-44124523D01*
X54086047Y-43743571D01*
X54133666Y-43648333D01*
X54228904Y-43600714D01*
X54419380Y-43600714D01*
X54514619Y-43648333D01*
X54562238Y-43743571D01*
X54562238Y-43838809D01*
X54086047Y-43934047D01*
X54847952Y-43600714D02*
X55228904Y-43600714D01*
X54990809Y-43267380D02*
X54990809Y-44124523D01*
X55038428Y-44219761D01*
X55133666Y-44267380D01*
X55228904Y-44267380D01*
D13*
X49149000Y-70104000D02*
X49403000Y-70104000D01*
X49022000Y-64770000D02*
X49276000Y-64770000D01*
X49276000Y-69469000D02*
X49022000Y-69723000D01*
X49530000Y-69723000D02*
X49276000Y-69469000D01*
X49276000Y-70104000D02*
X49276000Y-69469000D01*
X49149000Y-65405000D02*
X49403000Y-65151000D01*
X48895000Y-65151000D02*
X49149000Y-65405000D01*
X49149000Y-64770000D02*
X49149000Y-65405000D01*
D14*
X54817904Y-93119285D02*
X54836952Y-93062142D01*
X54836952Y-92966904D01*
X54817904Y-92928809D01*
X54798857Y-92909761D01*
X54760761Y-92890714D01*
X54722666Y-92890714D01*
X54684571Y-92909761D01*
X54665523Y-92928809D01*
X54646476Y-92966904D01*
X54627428Y-93043095D01*
X54608380Y-93081190D01*
X54589333Y-93100238D01*
X54551238Y-93119285D01*
X54513142Y-93119285D01*
X54475047Y-93100238D01*
X54456000Y-93081190D01*
X54436952Y-93043095D01*
X54436952Y-92947857D01*
X54456000Y-92890714D01*
X54836952Y-92719285D02*
X54570285Y-92719285D01*
X54436952Y-92719285D02*
X54456000Y-92738333D01*
X54475047Y-92719285D01*
X54456000Y-92700238D01*
X54436952Y-92719285D01*
X54475047Y-92719285D01*
X54570285Y-92528809D02*
X54836952Y-92528809D01*
X54608380Y-92528809D02*
X54589333Y-92509761D01*
X54570285Y-92471666D01*
X54570285Y-92414523D01*
X54589333Y-92376428D01*
X54627428Y-92357380D01*
X54836952Y-92357380D01*
X54570285Y-91995476D02*
X54894095Y-91995476D01*
X54932190Y-92014523D01*
X54951238Y-92033571D01*
X54970285Y-92071666D01*
X54970285Y-92128809D01*
X54951238Y-92166904D01*
X54817904Y-91995476D02*
X54836952Y-92033571D01*
X54836952Y-92109761D01*
X54817904Y-92147857D01*
X54798857Y-92166904D01*
X54760761Y-92185952D01*
X54646476Y-92185952D01*
X54608380Y-92166904D01*
X54589333Y-92147857D01*
X54570285Y-92109761D01*
X54570285Y-92033571D01*
X54589333Y-91995476D01*
X54836952Y-91747857D02*
X54817904Y-91785952D01*
X54779809Y-91805000D01*
X54436952Y-91805000D01*
X54817904Y-91443095D02*
X54836952Y-91481190D01*
X54836952Y-91557380D01*
X54817904Y-91595476D01*
X54779809Y-91614523D01*
X54627428Y-91614523D01*
X54589333Y-91595476D01*
X54570285Y-91557380D01*
X54570285Y-91481190D01*
X54589333Y-91443095D01*
X54627428Y-91424047D01*
X54665523Y-91424047D01*
X54703619Y-91614523D01*
X54836952Y-90947857D02*
X54436952Y-90947857D01*
X54589333Y-90947857D02*
X54570285Y-90909761D01*
X54570285Y-90833571D01*
X54589333Y-90795476D01*
X54608380Y-90776428D01*
X54646476Y-90757380D01*
X54760761Y-90757380D01*
X54798857Y-90776428D01*
X54817904Y-90795476D01*
X54836952Y-90833571D01*
X54836952Y-90909761D01*
X54817904Y-90947857D01*
X54836952Y-90585952D02*
X54570285Y-90585952D01*
X54436952Y-90585952D02*
X54456000Y-90605000D01*
X54475047Y-90585952D01*
X54456000Y-90566904D01*
X54436952Y-90585952D01*
X54475047Y-90585952D01*
X54570285Y-90224047D02*
X54894095Y-90224047D01*
X54932190Y-90243095D01*
X54951238Y-90262142D01*
X54970285Y-90300238D01*
X54970285Y-90357380D01*
X54951238Y-90395476D01*
X54817904Y-90224047D02*
X54836952Y-90262142D01*
X54836952Y-90338333D01*
X54817904Y-90376428D01*
X54798857Y-90395476D01*
X54760761Y-90414523D01*
X54646476Y-90414523D01*
X54608380Y-90395476D01*
X54589333Y-90376428D01*
X54570285Y-90338333D01*
X54570285Y-90262142D01*
X54589333Y-90224047D01*
X54836952Y-89728809D02*
X54436952Y-89728809D01*
X54684571Y-89690714D02*
X54836952Y-89576428D01*
X54570285Y-89576428D02*
X54722666Y-89728809D01*
X54570285Y-89405000D02*
X54836952Y-89405000D01*
X54608380Y-89405000D02*
X54589333Y-89385952D01*
X54570285Y-89347857D01*
X54570285Y-89290714D01*
X54589333Y-89252619D01*
X54627428Y-89233571D01*
X54836952Y-89233571D01*
X54836952Y-88985952D02*
X54817904Y-89024047D01*
X54798857Y-89043095D01*
X54760761Y-89062142D01*
X54646476Y-89062142D01*
X54608380Y-89043095D01*
X54589333Y-89024047D01*
X54570285Y-88985952D01*
X54570285Y-88928809D01*
X54589333Y-88890714D01*
X54608380Y-88871666D01*
X54646476Y-88852619D01*
X54760761Y-88852619D01*
X54798857Y-88871666D01*
X54817904Y-88890714D01*
X54836952Y-88928809D01*
X54836952Y-88985952D01*
X54836952Y-88681190D02*
X54436952Y-88681190D01*
X54589333Y-88681190D02*
X54570285Y-88643095D01*
X54570285Y-88566904D01*
X54589333Y-88528809D01*
X54608380Y-88509761D01*
X54646476Y-88490714D01*
X54760761Y-88490714D01*
X54798857Y-88509761D01*
X54817904Y-88528809D01*
X54836952Y-88566904D01*
X54836952Y-88643095D01*
X54817904Y-88681190D01*
X55487904Y-91528809D02*
X55506952Y-91471666D01*
X55506952Y-91376428D01*
X55487904Y-91338333D01*
X55468857Y-91319285D01*
X55430761Y-91300238D01*
X55392666Y-91300238D01*
X55354571Y-91319285D01*
X55335523Y-91338333D01*
X55316476Y-91376428D01*
X55297428Y-91452619D01*
X55278380Y-91490714D01*
X55259333Y-91509761D01*
X55221238Y-91528809D01*
X55183142Y-91528809D01*
X55145047Y-91509761D01*
X55126000Y-91490714D01*
X55106952Y-91452619D01*
X55106952Y-91357380D01*
X55126000Y-91300238D01*
X55106952Y-91166904D02*
X55506952Y-91071666D01*
X55221238Y-90995476D01*
X55506952Y-90919285D01*
X55106952Y-90824047D01*
X55145047Y-90690714D02*
X55126000Y-90671666D01*
X55106952Y-90633571D01*
X55106952Y-90538333D01*
X55126000Y-90500238D01*
X55145047Y-90481190D01*
X55183142Y-90462142D01*
X55221238Y-90462142D01*
X55278380Y-90481190D01*
X55506952Y-90709761D01*
X55506952Y-90462142D01*
X55278380Y-90233571D02*
X55259333Y-90271666D01*
X55240285Y-90290714D01*
X55202190Y-90309761D01*
X55183142Y-90309761D01*
X55145047Y-90290714D01*
X55126000Y-90271666D01*
X55106952Y-90233571D01*
X55106952Y-90157380D01*
X55126000Y-90119285D01*
X55145047Y-90100238D01*
X55183142Y-90081190D01*
X55202190Y-90081190D01*
X55240285Y-90100238D01*
X55259333Y-90119285D01*
X55278380Y-90157380D01*
X55278380Y-90233571D01*
X55297428Y-90271666D01*
X55316476Y-90290714D01*
X55354571Y-90309761D01*
X55430761Y-90309761D01*
X55468857Y-90290714D01*
X55487904Y-90271666D01*
X55506952Y-90233571D01*
X55506952Y-90157380D01*
X55487904Y-90119285D01*
X55468857Y-90100238D01*
X55430761Y-90081190D01*
X55354571Y-90081190D01*
X55316476Y-90100238D01*
X55297428Y-90119285D01*
X55278380Y-90157380D01*
D11*
X48336285Y-32443000D02*
X48250571Y-32400142D01*
X48122000Y-32400142D01*
X47993428Y-32443000D01*
X47907714Y-32528714D01*
X47864857Y-32614428D01*
X47822000Y-32785857D01*
X47822000Y-32914428D01*
X47864857Y-33085857D01*
X47907714Y-33171571D01*
X47993428Y-33257285D01*
X48122000Y-33300142D01*
X48207714Y-33300142D01*
X48336285Y-33257285D01*
X48379142Y-33214428D01*
X48379142Y-32914428D01*
X48207714Y-32914428D01*
X48764857Y-33300142D02*
X48764857Y-32400142D01*
X49279142Y-33300142D01*
X49279142Y-32400142D01*
X49707714Y-33300142D02*
X49707714Y-32400142D01*
X49922000Y-32400142D01*
X50050571Y-32443000D01*
X50136285Y-32528714D01*
X50179142Y-32614428D01*
X50222000Y-32785857D01*
X50222000Y-32914428D01*
X50179142Y-33085857D01*
X50136285Y-33171571D01*
X50050571Y-33257285D01*
X49922000Y-33300142D01*
X49707714Y-33300142D01*
X57706571Y-32775714D02*
X57835142Y-32818571D01*
X57878000Y-32861428D01*
X57920857Y-32947142D01*
X57920857Y-33075714D01*
X57878000Y-33161428D01*
X57835142Y-33204285D01*
X57749428Y-33247142D01*
X57406571Y-33247142D01*
X57406571Y-32347142D01*
X57706571Y-32347142D01*
X57792285Y-32390000D01*
X57835142Y-32432857D01*
X57878000Y-32518571D01*
X57878000Y-32604285D01*
X57835142Y-32690000D01*
X57792285Y-32732857D01*
X57706571Y-32775714D01*
X57406571Y-32775714D01*
X58263714Y-32990000D02*
X58692285Y-32990000D01*
X58178000Y-33247142D02*
X58478000Y-32347142D01*
X58778000Y-33247142D01*
X58949428Y-32347142D02*
X59463714Y-32347142D01*
X59206571Y-33247142D02*
X59206571Y-32347142D01*
X59763714Y-32904285D02*
X60449428Y-32904285D01*
X60106571Y-33247142D02*
X60106571Y-32561428D01*
X57706571Y-35675714D02*
X57835142Y-35718571D01*
X57878000Y-35761428D01*
X57920857Y-35847142D01*
X57920857Y-35975714D01*
X57878000Y-36061428D01*
X57835142Y-36104285D01*
X57749428Y-36147142D01*
X57406571Y-36147142D01*
X57406571Y-35247142D01*
X57706571Y-35247142D01*
X57792285Y-35290000D01*
X57835142Y-35332857D01*
X57878000Y-35418571D01*
X57878000Y-35504285D01*
X57835142Y-35590000D01*
X57792285Y-35632857D01*
X57706571Y-35675714D01*
X57406571Y-35675714D01*
X58263714Y-35890000D02*
X58692285Y-35890000D01*
X58178000Y-36147142D02*
X58478000Y-35247142D01*
X58778000Y-36147142D01*
X58949428Y-35247142D02*
X59463714Y-35247142D01*
X59206571Y-36147142D02*
X59206571Y-35247142D01*
X59763714Y-35804285D02*
X60449428Y-35804285D01*
D13*
X49899619Y-64774000D02*
X49852000Y-64750190D01*
X49780571Y-64750190D01*
X49709142Y-64774000D01*
X49661523Y-64821619D01*
X49637714Y-64869238D01*
X49613904Y-64964476D01*
X49613904Y-65035904D01*
X49637714Y-65131142D01*
X49661523Y-65178761D01*
X49709142Y-65226380D01*
X49780571Y-65250190D01*
X49828190Y-65250190D01*
X49899619Y-65226380D01*
X49923428Y-65202571D01*
X49923428Y-65035904D01*
X49828190Y-65035904D01*
X50137714Y-65250190D02*
X50137714Y-64750190D01*
X50423428Y-65250190D01*
X50423428Y-64750190D01*
X50661523Y-65250190D02*
X50661523Y-64750190D01*
X50780571Y-64750190D01*
X50852000Y-64774000D01*
X50899619Y-64821619D01*
X50923428Y-64869238D01*
X50947238Y-64964476D01*
X50947238Y-65035904D01*
X50923428Y-65131142D01*
X50899619Y-65178761D01*
X50852000Y-65226380D01*
X50780571Y-65250190D01*
X50661523Y-65250190D01*
X52232952Y-64750190D02*
X52399619Y-65250190D01*
X52566285Y-64750190D01*
X53018666Y-65202571D02*
X52994857Y-65226380D01*
X52923428Y-65250190D01*
X52875809Y-65250190D01*
X52804380Y-65226380D01*
X52756761Y-65178761D01*
X52732952Y-65131142D01*
X52709142Y-65035904D01*
X52709142Y-64964476D01*
X52732952Y-64869238D01*
X52756761Y-64821619D01*
X52804380Y-64774000D01*
X52875809Y-64750190D01*
X52923428Y-64750190D01*
X52994857Y-64774000D01*
X53018666Y-64797809D01*
X53518666Y-65202571D02*
X53494857Y-65226380D01*
X53423428Y-65250190D01*
X53375809Y-65250190D01*
X53304380Y-65226380D01*
X53256761Y-65178761D01*
X53232952Y-65131142D01*
X53209142Y-65035904D01*
X53209142Y-64964476D01*
X53232952Y-64869238D01*
X53256761Y-64821619D01*
X53304380Y-64774000D01*
X53375809Y-64750190D01*
X53423428Y-64750190D01*
X53494857Y-64774000D01*
X53518666Y-64797809D01*
X54852000Y-65226380D02*
X54923428Y-65250190D01*
X55042476Y-65250190D01*
X55090095Y-65226380D01*
X55113904Y-65202571D01*
X55137714Y-65154952D01*
X55137714Y-65107333D01*
X55113904Y-65059714D01*
X55090095Y-65035904D01*
X55042476Y-65012095D01*
X54947238Y-64988285D01*
X54899619Y-64964476D01*
X54875809Y-64940666D01*
X54852000Y-64893047D01*
X54852000Y-64845428D01*
X54875809Y-64797809D01*
X54899619Y-64774000D01*
X54947238Y-64750190D01*
X55066285Y-64750190D01*
X55137714Y-64774000D01*
X55637714Y-65202571D02*
X55613904Y-65226380D01*
X55542476Y-65250190D01*
X55494857Y-65250190D01*
X55423428Y-65226380D01*
X55375809Y-65178761D01*
X55352000Y-65131142D01*
X55328190Y-65035904D01*
X55328190Y-64964476D01*
X55352000Y-64869238D01*
X55375809Y-64821619D01*
X55423428Y-64774000D01*
X55494857Y-64750190D01*
X55542476Y-64750190D01*
X55613904Y-64774000D01*
X55637714Y-64797809D01*
X56090095Y-65250190D02*
X55852000Y-65250190D01*
X55852000Y-64750190D01*
X57375809Y-65226380D02*
X57447238Y-65250190D01*
X57566285Y-65250190D01*
X57613904Y-65226380D01*
X57637714Y-65202571D01*
X57661523Y-65154952D01*
X57661523Y-65107333D01*
X57637714Y-65059714D01*
X57613904Y-65035904D01*
X57566285Y-65012095D01*
X57471047Y-64988285D01*
X57423428Y-64964476D01*
X57399619Y-64940666D01*
X57375809Y-64893047D01*
X57375809Y-64845428D01*
X57399619Y-64797809D01*
X57423428Y-64774000D01*
X57471047Y-64750190D01*
X57590095Y-64750190D01*
X57661523Y-64774000D01*
X57875809Y-65250190D02*
X57875809Y-64750190D01*
X57994857Y-64750190D01*
X58066285Y-64774000D01*
X58113904Y-64821619D01*
X58137714Y-64869238D01*
X58161523Y-64964476D01*
X58161523Y-65035904D01*
X58137714Y-65131142D01*
X58113904Y-65178761D01*
X58066285Y-65226380D01*
X57994857Y-65250190D01*
X57875809Y-65250190D01*
X58351999Y-65107333D02*
X58590095Y-65107333D01*
X58304380Y-65250190D02*
X58471047Y-64750190D01*
X58637714Y-65250190D01*
X49740904Y-70052380D02*
X49812333Y-70076190D01*
X49931380Y-70076190D01*
X49979000Y-70052380D01*
X50002809Y-70028571D01*
X50026619Y-69980952D01*
X50026619Y-69933333D01*
X50002809Y-69885714D01*
X49979000Y-69861904D01*
X49931380Y-69838095D01*
X49836142Y-69814285D01*
X49788523Y-69790476D01*
X49764714Y-69766666D01*
X49740904Y-69719047D01*
X49740904Y-69671428D01*
X49764714Y-69623809D01*
X49788523Y-69600000D01*
X49836142Y-69576190D01*
X49955190Y-69576190D01*
X50026619Y-69600000D01*
X50240904Y-70076190D02*
X50240904Y-69576190D01*
X50359952Y-69576190D01*
X50431380Y-69600000D01*
X50479000Y-69647619D01*
X50502809Y-69695238D01*
X50526619Y-69790476D01*
X50526619Y-69861904D01*
X50502809Y-69957142D01*
X50479000Y-70004761D01*
X50431380Y-70052380D01*
X50359952Y-70076190D01*
X50240904Y-70076190D01*
X50717095Y-69933333D02*
X50955190Y-69933333D01*
X50669476Y-70076190D02*
X50836142Y-69576190D01*
X51002809Y-70076190D01*
X52288523Y-70052380D02*
X52359952Y-70076190D01*
X52479000Y-70076190D01*
X52526619Y-70052380D01*
X52550428Y-70028571D01*
X52574238Y-69980952D01*
X52574238Y-69933333D01*
X52550428Y-69885714D01*
X52526619Y-69861904D01*
X52479000Y-69838095D01*
X52383761Y-69814285D01*
X52336142Y-69790476D01*
X52312333Y-69766666D01*
X52288523Y-69719047D01*
X52288523Y-69671428D01*
X52312333Y-69623809D01*
X52336142Y-69600000D01*
X52383761Y-69576190D01*
X52502809Y-69576190D01*
X52574238Y-69600000D01*
X53074238Y-70028571D02*
X53050428Y-70052380D01*
X52979000Y-70076190D01*
X52931380Y-70076190D01*
X52859952Y-70052380D01*
X52812333Y-70004761D01*
X52788523Y-69957142D01*
X52764714Y-69861904D01*
X52764714Y-69790476D01*
X52788523Y-69695238D01*
X52812333Y-69647619D01*
X52859952Y-69600000D01*
X52931380Y-69576190D01*
X52979000Y-69576190D01*
X53050428Y-69600000D01*
X53074238Y-69623809D01*
X53526619Y-70076190D02*
X53288523Y-70076190D01*
X53288523Y-69576190D01*
X54764714Y-69576190D02*
X54931380Y-70076190D01*
X55098047Y-69576190D01*
X55550428Y-70028571D02*
X55526619Y-70052380D01*
X55455190Y-70076190D01*
X55407571Y-70076190D01*
X55336142Y-70052380D01*
X55288523Y-70004761D01*
X55264714Y-69957142D01*
X55240904Y-69861904D01*
X55240904Y-69790476D01*
X55264714Y-69695238D01*
X55288523Y-69647619D01*
X55336142Y-69600000D01*
X55407571Y-69576190D01*
X55455190Y-69576190D01*
X55526619Y-69600000D01*
X55550428Y-69623809D01*
X56050428Y-70028571D02*
X56026619Y-70052380D01*
X55955190Y-70076190D01*
X55907571Y-70076190D01*
X55836142Y-70052380D01*
X55788523Y-70004761D01*
X55764714Y-69957142D01*
X55740904Y-69861904D01*
X55740904Y-69790476D01*
X55764714Y-69695238D01*
X55788523Y-69647619D01*
X55836142Y-69600000D01*
X55907571Y-69576190D01*
X55955190Y-69576190D01*
X56026619Y-69600000D01*
X56050428Y-69623809D01*
X57669476Y-69600000D02*
X57621857Y-69576190D01*
X57550428Y-69576190D01*
X57478999Y-69600000D01*
X57431380Y-69647619D01*
X57407571Y-69695238D01*
X57383761Y-69790476D01*
X57383761Y-69861904D01*
X57407571Y-69957142D01*
X57431380Y-70004761D01*
X57478999Y-70052380D01*
X57550428Y-70076190D01*
X57598047Y-70076190D01*
X57669476Y-70052380D01*
X57693285Y-70028571D01*
X57693285Y-69861904D01*
X57598047Y-69861904D01*
X57907571Y-70076190D02*
X57907571Y-69576190D01*
X58193285Y-70076190D01*
X58193285Y-69576190D01*
X58431380Y-70076190D02*
X58431380Y-69576190D01*
X58550428Y-69576190D01*
X58621857Y-69600000D01*
X58669476Y-69647619D01*
X58693285Y-69695238D01*
X58717095Y-69790476D01*
X58717095Y-69861904D01*
X58693285Y-69957142D01*
X58669476Y-70004761D01*
X58621857Y-70052380D01*
X58550428Y-70076190D01*
X58431380Y-70076190D01*
D15*
X49855619Y-64234190D02*
X49855619Y-63900857D01*
X49855619Y-63996095D02*
X49879428Y-63948476D01*
X49903238Y-63924666D01*
X49950857Y-63900857D01*
X49998476Y-63900857D01*
X50355619Y-64210380D02*
X50308000Y-64234190D01*
X50212761Y-64234190D01*
X50165142Y-64210380D01*
X50141333Y-64162761D01*
X50141333Y-63972285D01*
X50165142Y-63924666D01*
X50212761Y-63900857D01*
X50308000Y-63900857D01*
X50355619Y-63924666D01*
X50379428Y-63972285D01*
X50379428Y-64019904D01*
X50141333Y-64067523D01*
X50546095Y-63900857D02*
X50665142Y-64234190D01*
X50784190Y-63900857D01*
X51165142Y-64210380D02*
X51117523Y-64234190D01*
X51022285Y-64234190D01*
X50974666Y-64210380D01*
X50950857Y-64162761D01*
X50950857Y-63972285D01*
X50974666Y-63924666D01*
X51022285Y-63900857D01*
X51117523Y-63900857D01*
X51165142Y-63924666D01*
X51188952Y-63972285D01*
X51188952Y-64019904D01*
X50950857Y-64067523D01*
X51403238Y-64234190D02*
X51403238Y-63900857D01*
X51403238Y-63996095D02*
X51427047Y-63948476D01*
X51450857Y-63924666D01*
X51498476Y-63900857D01*
X51546095Y-63900857D01*
X51688952Y-64210380D02*
X51736571Y-64234190D01*
X51831809Y-64234190D01*
X51879428Y-64210380D01*
X51903238Y-64162761D01*
X51903238Y-64138952D01*
X51879428Y-64091333D01*
X51831809Y-64067523D01*
X51760380Y-64067523D01*
X51712761Y-64043714D01*
X51688952Y-63996095D01*
X51688952Y-63972285D01*
X51712761Y-63924666D01*
X51760380Y-63900857D01*
X51831809Y-63900857D01*
X51879428Y-63924666D01*
X52308000Y-64210380D02*
X52260380Y-64234190D01*
X52165142Y-64234190D01*
X52117523Y-64210380D01*
X52093714Y-64162761D01*
X52093714Y-63972285D01*
X52117523Y-63924666D01*
X52165142Y-63900857D01*
X52260380Y-63900857D01*
X52308000Y-63924666D01*
X52331809Y-63972285D01*
X52331809Y-64019904D01*
X52093714Y-64067523D01*
X52760380Y-64234190D02*
X52760380Y-63734190D01*
X52760380Y-64210380D02*
X52712761Y-64234190D01*
X52617523Y-64234190D01*
X52569904Y-64210380D01*
X52546095Y-64186571D01*
X52522285Y-64138952D01*
X52522285Y-63996095D01*
X52546095Y-63948476D01*
X52569904Y-63924666D01*
X52617523Y-63900857D01*
X52712761Y-63900857D01*
X52760380Y-63924666D01*
D16*
%TO.C,D0*%
X148113000Y-33031000D02*
X146273000Y-33031000D01*
X146273000Y-36311000D02*
X148113000Y-36311000D01*
X146273000Y-33031000D02*
X146273000Y-36311000D01*
X147193000Y-31851000D02*
X147193000Y-33031000D01*
X148113000Y-36311000D02*
X148113000Y-33031000D01*
X148113000Y-33607000D02*
X146273000Y-33607000D01*
X147193000Y-37491000D02*
X147193000Y-36311000D01*
X148113000Y-33487000D02*
X146273000Y-33487000D01*
X148113000Y-33727000D02*
X146273000Y-33727000D01*
%TO.C,SW29*%
X54244000Y-81240000D02*
X55244000Y-81240000D01*
X54744000Y-80740000D02*
X54744000Y-81740000D01*
X47544000Y-77140000D02*
X47244000Y-77440000D01*
X46944000Y-77140000D02*
X47544000Y-77140000D01*
X47244000Y-77440000D02*
X46944000Y-77140000D01*
X48044000Y-74940000D02*
X48044000Y-77440000D01*
X52844000Y-74940000D02*
X48044000Y-74940000D01*
X48044000Y-87540000D02*
X48044000Y-84740000D01*
X52944000Y-87540000D02*
X48044000Y-87540000D01*
X61444000Y-87540000D02*
X56544000Y-87540000D01*
X61444000Y-74940000D02*
X61444000Y-87540000D01*
X56544000Y-74940000D02*
X61444000Y-74940000D01*
X57744000Y-81240000D02*
G75*
G03*
X57744000Y-81240000I-3000000J0D01*
G01*
%TO.C,SW28*%
X53990000Y-100290000D02*
X54990000Y-100290000D01*
X54490000Y-99790000D02*
X54490000Y-100790000D01*
X47290000Y-96190000D02*
X46990000Y-96490000D01*
X46690000Y-96190000D02*
X47290000Y-96190000D01*
X46990000Y-96490000D02*
X46690000Y-96190000D01*
X47790000Y-93990000D02*
X47790000Y-96490000D01*
X52590000Y-93990000D02*
X47790000Y-93990000D01*
X47790000Y-106590000D02*
X47790000Y-103790000D01*
X52690000Y-106590000D02*
X47790000Y-106590000D01*
X61190000Y-106590000D02*
X56290000Y-106590000D01*
X61190000Y-93990000D02*
X61190000Y-106590000D01*
X56290000Y-93990000D02*
X61190000Y-93990000D01*
X57490000Y-100290000D02*
G75*
G03*
X57490000Y-100290000I-3000000J0D01*
G01*
%TO.C,SW32*%
X51166000Y-90845000D02*
X50166000Y-90845000D01*
X50666000Y-91345000D02*
X50666000Y-90345000D01*
X57866000Y-94945000D02*
X58166000Y-94645000D01*
X58466000Y-94945000D02*
X57866000Y-94945000D01*
X58166000Y-94645000D02*
X58466000Y-94945000D01*
X57366000Y-97145000D02*
X57366000Y-94645000D01*
X52566000Y-97145000D02*
X57366000Y-97145000D01*
X57366000Y-84545000D02*
X57366000Y-87345000D01*
X52466000Y-84545000D02*
X57366000Y-84545000D01*
X43966000Y-84545000D02*
X48866000Y-84545000D01*
X43966000Y-97145000D02*
X43966000Y-84545000D01*
X48866000Y-97145000D02*
X43966000Y-97145000D01*
X53666000Y-90845000D02*
G75*
G03*
X53666000Y-90845000I-3000000J0D01*
G01*
%TO.C,SW31*%
X50380000Y-41640000D02*
X50380000Y-46140000D01*
X54380000Y-40390000D02*
X52880000Y-40390000D01*
X56880000Y-46140000D02*
X56880000Y-41640000D01*
X52880000Y-47390000D02*
X54380000Y-47390000D01*
%TO.C,D22*%
X47656000Y-137806000D02*
X45816000Y-137806000D01*
X45816000Y-141086000D02*
X47656000Y-141086000D01*
X45816000Y-137806000D02*
X45816000Y-141086000D01*
X46736000Y-136626000D02*
X46736000Y-137806000D01*
X47656000Y-141086000D02*
X47656000Y-137806000D01*
X47656000Y-138382000D02*
X45816000Y-138382000D01*
X46736000Y-142266000D02*
X46736000Y-141086000D01*
X47656000Y-138262000D02*
X45816000Y-138262000D01*
X47656000Y-138502000D02*
X45816000Y-138502000D01*
%TO.C,D24*%
X47656000Y-152538000D02*
X45816000Y-152538000D01*
X45816000Y-155818000D02*
X47656000Y-155818000D01*
X45816000Y-152538000D02*
X45816000Y-155818000D01*
X46736000Y-151358000D02*
X46736000Y-152538000D01*
X47656000Y-155818000D02*
X47656000Y-152538000D01*
X47656000Y-153114000D02*
X45816000Y-153114000D01*
X46736000Y-156998000D02*
X46736000Y-155818000D01*
X47656000Y-152994000D02*
X45816000Y-152994000D01*
X47656000Y-153234000D02*
X45816000Y-153234000D01*
%TO.C,D23*%
X49942000Y-153046000D02*
X48102000Y-153046000D01*
X48102000Y-156326000D02*
X49942000Y-156326000D01*
X48102000Y-153046000D02*
X48102000Y-156326000D01*
X49022000Y-151866000D02*
X49022000Y-153046000D01*
X49942000Y-156326000D02*
X49942000Y-153046000D01*
X49942000Y-153622000D02*
X48102000Y-153622000D01*
X49022000Y-157506000D02*
X49022000Y-156326000D01*
X49942000Y-153502000D02*
X48102000Y-153502000D01*
X49942000Y-153742000D02*
X48102000Y-153742000D01*
%TO.C,D21*%
X49942000Y-138314000D02*
X48102000Y-138314000D01*
X48102000Y-141594000D02*
X49942000Y-141594000D01*
X48102000Y-138314000D02*
X48102000Y-141594000D01*
X49022000Y-137134000D02*
X49022000Y-138314000D01*
X49942000Y-141594000D02*
X49942000Y-138314000D01*
X49942000Y-138890000D02*
X48102000Y-138890000D01*
X49022000Y-142774000D02*
X49022000Y-141594000D01*
X49942000Y-138770000D02*
X48102000Y-138770000D01*
X49942000Y-139010000D02*
X48102000Y-139010000D01*
%TO.C,D20*%
X47656000Y-123074000D02*
X45816000Y-123074000D01*
X45816000Y-126354000D02*
X47656000Y-126354000D01*
X45816000Y-123074000D02*
X45816000Y-126354000D01*
X46736000Y-121894000D02*
X46736000Y-123074000D01*
X47656000Y-126354000D02*
X47656000Y-123074000D01*
X47656000Y-123650000D02*
X45816000Y-123650000D01*
X46736000Y-127534000D02*
X46736000Y-126354000D01*
X47656000Y-123530000D02*
X45816000Y-123530000D01*
X47656000Y-123770000D02*
X45816000Y-123770000D01*
%TO.C,D19*%
X49942000Y-123582000D02*
X48102000Y-123582000D01*
X48102000Y-126862000D02*
X49942000Y-126862000D01*
X48102000Y-123582000D02*
X48102000Y-126862000D01*
X49022000Y-122402000D02*
X49022000Y-123582000D01*
X49942000Y-126862000D02*
X49942000Y-123582000D01*
X49942000Y-124158000D02*
X48102000Y-124158000D01*
X49022000Y-128042000D02*
X49022000Y-126862000D01*
X49942000Y-124038000D02*
X48102000Y-124038000D01*
X49942000Y-124278000D02*
X48102000Y-124278000D01*
%TO.C,D18*%
X52228000Y-153554000D02*
X50388000Y-153554000D01*
X50388000Y-156834000D02*
X52228000Y-156834000D01*
X50388000Y-153554000D02*
X50388000Y-156834000D01*
X51308000Y-152374000D02*
X51308000Y-153554000D01*
X52228000Y-156834000D02*
X52228000Y-153554000D01*
X52228000Y-154130000D02*
X50388000Y-154130000D01*
X51308000Y-158014000D02*
X51308000Y-156834000D01*
X52228000Y-154010000D02*
X50388000Y-154010000D01*
X52228000Y-154250000D02*
X50388000Y-154250000D01*
%TO.C,D17*%
X54514000Y-154062000D02*
X52674000Y-154062000D01*
X52674000Y-157342000D02*
X54514000Y-157342000D01*
X52674000Y-154062000D02*
X52674000Y-157342000D01*
X53594000Y-152882000D02*
X53594000Y-154062000D01*
X54514000Y-157342000D02*
X54514000Y-154062000D01*
X54514000Y-154638000D02*
X52674000Y-154638000D01*
X53594000Y-158522000D02*
X53594000Y-157342000D01*
X54514000Y-154518000D02*
X52674000Y-154518000D01*
X54514000Y-154758000D02*
X52674000Y-154758000D01*
%TO.C,D16*%
X52228000Y-138822000D02*
X50388000Y-138822000D01*
X50388000Y-142102000D02*
X52228000Y-142102000D01*
X50388000Y-138822000D02*
X50388000Y-142102000D01*
X51308000Y-137642000D02*
X51308000Y-138822000D01*
X52228000Y-142102000D02*
X52228000Y-138822000D01*
X52228000Y-139398000D02*
X50388000Y-139398000D01*
X51308000Y-143282000D02*
X51308000Y-142102000D01*
X52228000Y-139278000D02*
X50388000Y-139278000D01*
X52228000Y-139518000D02*
X50388000Y-139518000D01*
%TO.C,D15*%
X54514000Y-139330000D02*
X52674000Y-139330000D01*
X52674000Y-142610000D02*
X54514000Y-142610000D01*
X52674000Y-139330000D02*
X52674000Y-142610000D01*
X53594000Y-138150000D02*
X53594000Y-139330000D01*
X54514000Y-142610000D02*
X54514000Y-139330000D01*
X54514000Y-139906000D02*
X52674000Y-139906000D01*
X53594000Y-143790000D02*
X53594000Y-142610000D01*
X54514000Y-139786000D02*
X52674000Y-139786000D01*
X54514000Y-140026000D02*
X52674000Y-140026000D01*
%TO.C,D14*%
X52228000Y-124090000D02*
X50388000Y-124090000D01*
X50388000Y-127370000D02*
X52228000Y-127370000D01*
X50388000Y-124090000D02*
X50388000Y-127370000D01*
X51308000Y-122910000D02*
X51308000Y-124090000D01*
X52228000Y-127370000D02*
X52228000Y-124090000D01*
X52228000Y-124666000D02*
X50388000Y-124666000D01*
X51308000Y-128550000D02*
X51308000Y-127370000D01*
X52228000Y-124546000D02*
X50388000Y-124546000D01*
X52228000Y-124786000D02*
X50388000Y-124786000D01*
%TO.C,D13*%
X54514000Y-124598000D02*
X52674000Y-124598000D01*
X52674000Y-127878000D02*
X54514000Y-127878000D01*
X52674000Y-124598000D02*
X52674000Y-127878000D01*
X53594000Y-123418000D02*
X53594000Y-124598000D01*
X54514000Y-127878000D02*
X54514000Y-124598000D01*
X54514000Y-125174000D02*
X52674000Y-125174000D01*
X53594000Y-129058000D02*
X53594000Y-127878000D01*
X54514000Y-125054000D02*
X52674000Y-125054000D01*
X54514000Y-125294000D02*
X52674000Y-125294000D01*
%TO.C,D12*%
X56800000Y-154570000D02*
X54960000Y-154570000D01*
X54960000Y-157850000D02*
X56800000Y-157850000D01*
X54960000Y-154570000D02*
X54960000Y-157850000D01*
X55880000Y-153390000D02*
X55880000Y-154570000D01*
X56800000Y-157850000D02*
X56800000Y-154570000D01*
X56800000Y-155146000D02*
X54960000Y-155146000D01*
X55880000Y-159030000D02*
X55880000Y-157850000D01*
X56800000Y-155026000D02*
X54960000Y-155026000D01*
X56800000Y-155266000D02*
X54960000Y-155266000D01*
%TO.C,D11*%
X59086000Y-155078000D02*
X57246000Y-155078000D01*
X57246000Y-158358000D02*
X59086000Y-158358000D01*
X57246000Y-155078000D02*
X57246000Y-158358000D01*
X58166000Y-153898000D02*
X58166000Y-155078000D01*
X59086000Y-158358000D02*
X59086000Y-155078000D01*
X59086000Y-155654000D02*
X57246000Y-155654000D01*
X58166000Y-159538000D02*
X58166000Y-158358000D01*
X59086000Y-155534000D02*
X57246000Y-155534000D01*
X59086000Y-155774000D02*
X57246000Y-155774000D01*
%TO.C,D10*%
X56800000Y-139838000D02*
X54960000Y-139838000D01*
X54960000Y-143118000D02*
X56800000Y-143118000D01*
X54960000Y-139838000D02*
X54960000Y-143118000D01*
X55880000Y-138658000D02*
X55880000Y-139838000D01*
X56800000Y-143118000D02*
X56800000Y-139838000D01*
X56800000Y-140414000D02*
X54960000Y-140414000D01*
X55880000Y-144298000D02*
X55880000Y-143118000D01*
X56800000Y-140294000D02*
X54960000Y-140294000D01*
X56800000Y-140534000D02*
X54960000Y-140534000D01*
%TO.C,D9*%
X59086000Y-140346000D02*
X57246000Y-140346000D01*
X57246000Y-143626000D02*
X59086000Y-143626000D01*
X57246000Y-140346000D02*
X57246000Y-143626000D01*
X58166000Y-139166000D02*
X58166000Y-140346000D01*
X59086000Y-143626000D02*
X59086000Y-140346000D01*
X59086000Y-140922000D02*
X57246000Y-140922000D01*
X58166000Y-144806000D02*
X58166000Y-143626000D01*
X59086000Y-140802000D02*
X57246000Y-140802000D01*
X59086000Y-141042000D02*
X57246000Y-141042000D01*
%TO.C,D8*%
X56800000Y-125106000D02*
X54960000Y-125106000D01*
X54960000Y-128386000D02*
X56800000Y-128386000D01*
X54960000Y-125106000D02*
X54960000Y-128386000D01*
X55880000Y-123926000D02*
X55880000Y-125106000D01*
X56800000Y-128386000D02*
X56800000Y-125106000D01*
X56800000Y-125682000D02*
X54960000Y-125682000D01*
X55880000Y-129566000D02*
X55880000Y-128386000D01*
X56800000Y-125562000D02*
X54960000Y-125562000D01*
X56800000Y-125802000D02*
X54960000Y-125802000D01*
%TO.C,D7*%
X59086000Y-125614000D02*
X57246000Y-125614000D01*
X57246000Y-128894000D02*
X59086000Y-128894000D01*
X57246000Y-125614000D02*
X57246000Y-128894000D01*
X58166000Y-124434000D02*
X58166000Y-125614000D01*
X59086000Y-128894000D02*
X59086000Y-125614000D01*
X59086000Y-126190000D02*
X57246000Y-126190000D01*
X58166000Y-130074000D02*
X58166000Y-128894000D01*
X59086000Y-126070000D02*
X57246000Y-126070000D01*
X59086000Y-126310000D02*
X57246000Y-126310000D01*
%TO.C,D6*%
X61372000Y-155586000D02*
X59532000Y-155586000D01*
X59532000Y-158866000D02*
X61372000Y-158866000D01*
X59532000Y-155586000D02*
X59532000Y-158866000D01*
X60452000Y-154406000D02*
X60452000Y-155586000D01*
X61372000Y-158866000D02*
X61372000Y-155586000D01*
X61372000Y-156162000D02*
X59532000Y-156162000D01*
X60452000Y-160046000D02*
X60452000Y-158866000D01*
X61372000Y-156042000D02*
X59532000Y-156042000D01*
X61372000Y-156282000D02*
X59532000Y-156282000D01*
%TO.C,D5*%
X63658000Y-156094000D02*
X61818000Y-156094000D01*
X61818000Y-159374000D02*
X63658000Y-159374000D01*
X61818000Y-156094000D02*
X61818000Y-159374000D01*
X62738000Y-154914000D02*
X62738000Y-156094000D01*
X63658000Y-159374000D02*
X63658000Y-156094000D01*
X63658000Y-156670000D02*
X61818000Y-156670000D01*
X62738000Y-160554000D02*
X62738000Y-159374000D01*
X63658000Y-156550000D02*
X61818000Y-156550000D01*
X63658000Y-156790000D02*
X61818000Y-156790000D01*
%TO.C,D4*%
X61372000Y-140854000D02*
X59532000Y-140854000D01*
X59532000Y-144134000D02*
X61372000Y-144134000D01*
X59532000Y-140854000D02*
X59532000Y-144134000D01*
X60452000Y-139674000D02*
X60452000Y-140854000D01*
X61372000Y-144134000D02*
X61372000Y-140854000D01*
X61372000Y-141430000D02*
X59532000Y-141430000D01*
X60452000Y-145314000D02*
X60452000Y-144134000D01*
X61372000Y-141310000D02*
X59532000Y-141310000D01*
X61372000Y-141550000D02*
X59532000Y-141550000D01*
%TO.C,D3*%
X63658000Y-141362000D02*
X61818000Y-141362000D01*
X61818000Y-144642000D02*
X63658000Y-144642000D01*
X61818000Y-141362000D02*
X61818000Y-144642000D01*
X62738000Y-140182000D02*
X62738000Y-141362000D01*
X63658000Y-144642000D02*
X63658000Y-141362000D01*
X63658000Y-141938000D02*
X61818000Y-141938000D01*
X62738000Y-145822000D02*
X62738000Y-144642000D01*
X63658000Y-141818000D02*
X61818000Y-141818000D01*
X63658000Y-142058000D02*
X61818000Y-142058000D01*
%TO.C,D2*%
X61372000Y-126122000D02*
X59532000Y-126122000D01*
X59532000Y-129402000D02*
X61372000Y-129402000D01*
X59532000Y-126122000D02*
X59532000Y-129402000D01*
X60452000Y-124942000D02*
X60452000Y-126122000D01*
X61372000Y-129402000D02*
X61372000Y-126122000D01*
X61372000Y-126698000D02*
X59532000Y-126698000D01*
X60452000Y-130582000D02*
X60452000Y-129402000D01*
X61372000Y-126578000D02*
X59532000Y-126578000D01*
X61372000Y-126818000D02*
X59532000Y-126818000D01*
%TO.C,D1*%
X63658000Y-126630000D02*
X61818000Y-126630000D01*
X61818000Y-129910000D02*
X63658000Y-129910000D01*
X61818000Y-126630000D02*
X61818000Y-129910000D01*
X62738000Y-125450000D02*
X62738000Y-126630000D01*
X63658000Y-129910000D02*
X63658000Y-126630000D01*
X63658000Y-127206000D02*
X61818000Y-127206000D01*
X62738000Y-131090000D02*
X62738000Y-129910000D01*
X63658000Y-127086000D02*
X61818000Y-127086000D01*
X63658000Y-127326000D02*
X61818000Y-127326000D01*
%TO.C,SW2*%
X82919000Y-74053000D02*
X68719000Y-74053000D01*
X82919000Y-88253000D02*
X82919000Y-74053000D01*
X68719000Y-88253000D02*
X82919000Y-88253000D01*
X68719000Y-74053000D02*
X68719000Y-88253000D01*
%TO.C,SW3*%
X82919000Y-93103000D02*
X68719000Y-93103000D01*
X82919000Y-107303000D02*
X82919000Y-93103000D01*
X68719000Y-107303000D02*
X82919000Y-107303000D01*
X68719000Y-93103000D02*
X68719000Y-107303000D01*
%TO.C,SW4*%
X82919000Y-112153000D02*
X68719000Y-112153000D01*
X82919000Y-126353000D02*
X82919000Y-112153000D01*
X68719000Y-126353000D02*
X82919000Y-126353000D01*
X68719000Y-112153000D02*
X68719000Y-126353000D01*
%TO.C,SW5*%
X82919000Y-131203000D02*
X68719000Y-131203000D01*
X82919000Y-145403000D02*
X82919000Y-131203000D01*
X68719000Y-145403000D02*
X82919000Y-145403000D01*
X68719000Y-131203000D02*
X68719000Y-145403000D01*
%TO.C,SW6*%
X82919000Y-150253000D02*
X68719000Y-150253000D01*
X82919000Y-164453000D02*
X82919000Y-150253000D01*
X68719000Y-164453000D02*
X82919000Y-164453000D01*
X68719000Y-150253000D02*
X68719000Y-164453000D01*
%TO.C,SW7*%
X78244000Y-164453000D02*
X92444000Y-164453000D01*
X78244000Y-150253000D02*
X78244000Y-164453000D01*
X92444000Y-150253000D02*
X78244000Y-150253000D01*
X92444000Y-164453000D02*
X92444000Y-150253000D01*
%TO.C,SW8*%
X101969000Y-55003000D02*
X87769000Y-55003000D01*
X101969000Y-69203000D02*
X101969000Y-55003000D01*
X87769000Y-69203000D02*
X101969000Y-69203000D01*
X87769000Y-55003000D02*
X87769000Y-69203000D01*
%TO.C,SW9*%
X101969000Y-74053000D02*
X87769000Y-74053000D01*
X101969000Y-88253000D02*
X101969000Y-74053000D01*
X87769000Y-88253000D02*
X101969000Y-88253000D01*
X87769000Y-74053000D02*
X87769000Y-88253000D01*
%TO.C,SW10*%
X101969000Y-93103000D02*
X87769000Y-93103000D01*
X101969000Y-107303000D02*
X101969000Y-93103000D01*
X87769000Y-107303000D02*
X101969000Y-107303000D01*
X87769000Y-93103000D02*
X87769000Y-107303000D01*
%TO.C,SW13*%
X101969000Y-150253000D02*
X87769000Y-150253000D01*
X101969000Y-164453000D02*
X101969000Y-150253000D01*
X87769000Y-164453000D02*
X101969000Y-164453000D01*
X87769000Y-150253000D02*
X87769000Y-164453000D01*
%TO.C,SW14*%
X121019000Y-55003000D02*
X106819000Y-55003000D01*
X121019000Y-69203000D02*
X121019000Y-55003000D01*
X106819000Y-69203000D02*
X121019000Y-69203000D01*
X106819000Y-55003000D02*
X106819000Y-69203000D01*
%TO.C,SW15*%
X121019000Y-74053000D02*
X106819000Y-74053000D01*
X121019000Y-88253000D02*
X121019000Y-74053000D01*
X106819000Y-88253000D02*
X121019000Y-88253000D01*
X106819000Y-74053000D02*
X106819000Y-88253000D01*
%TO.C,SW16*%
X121019000Y-93103000D02*
X106819000Y-93103000D01*
X121019000Y-107303000D02*
X121019000Y-93103000D01*
X106819000Y-107303000D02*
X121019000Y-107303000D01*
X106819000Y-93103000D02*
X106819000Y-107303000D01*
%TO.C,SW17*%
X121019000Y-112153000D02*
X106819000Y-112153000D01*
X121019000Y-126353000D02*
X121019000Y-112153000D01*
X106819000Y-126353000D02*
X121019000Y-126353000D01*
X106819000Y-112153000D02*
X106819000Y-126353000D01*
%TO.C,SW18*%
X121019000Y-131203000D02*
X106819000Y-131203000D01*
X121019000Y-145403000D02*
X121019000Y-131203000D01*
X106819000Y-145403000D02*
X121019000Y-145403000D01*
X106819000Y-131203000D02*
X106819000Y-145403000D01*
%TO.C,SW19*%
X121019000Y-150253000D02*
X106819000Y-150253000D01*
X121019000Y-164453000D02*
X121019000Y-150253000D01*
X106819000Y-164453000D02*
X121019000Y-164453000D01*
X106819000Y-150253000D02*
X106819000Y-164453000D01*
%TO.C,SW20*%
X140069000Y-55003000D02*
X125869000Y-55003000D01*
X140069000Y-69203000D02*
X140069000Y-55003000D01*
X125869000Y-69203000D02*
X140069000Y-69203000D01*
X125869000Y-55003000D02*
X125869000Y-69203000D01*
%TO.C,SW21*%
X140069000Y-74053000D02*
X125869000Y-74053000D01*
X140069000Y-88253000D02*
X140069000Y-74053000D01*
X125869000Y-88253000D02*
X140069000Y-88253000D01*
X125869000Y-74053000D02*
X125869000Y-88253000D01*
%TO.C,SW22*%
X140069000Y-93103000D02*
X125869000Y-93103000D01*
X140069000Y-107303000D02*
X140069000Y-93103000D01*
X125869000Y-107303000D02*
X140069000Y-107303000D01*
X125869000Y-93103000D02*
X125869000Y-107303000D01*
%TO.C,SW23*%
X140069000Y-112153000D02*
X125869000Y-112153000D01*
X140069000Y-126353000D02*
X140069000Y-112153000D01*
X125869000Y-126353000D02*
X140069000Y-126353000D01*
X125869000Y-112153000D02*
X125869000Y-126353000D01*
%TO.C,SW24*%
X140069000Y-131203000D02*
X125869000Y-131203000D01*
X140069000Y-145403000D02*
X140069000Y-131203000D01*
X125869000Y-145403000D02*
X140069000Y-145403000D01*
X125869000Y-131203000D02*
X125869000Y-145403000D01*
%TO.C,SW25*%
X140069000Y-150253000D02*
X125869000Y-150253000D01*
X140069000Y-164453000D02*
X140069000Y-150253000D01*
X125869000Y-164453000D02*
X140069000Y-164453000D01*
X125869000Y-150253000D02*
X125869000Y-164453000D01*
%TO.C,SW26*%
X140069000Y-102628000D02*
X125869000Y-102628000D01*
X140069000Y-116828000D02*
X140069000Y-102628000D01*
X125869000Y-116828000D02*
X140069000Y-116828000D01*
X125869000Y-102628000D02*
X125869000Y-116828000D01*
%TO.C,SW27*%
X140069000Y-140728000D02*
X125869000Y-140728000D01*
X140069000Y-154928000D02*
X140069000Y-140728000D01*
X125869000Y-154928000D02*
X140069000Y-154928000D01*
X125869000Y-140728000D02*
X125869000Y-154928000D01*
%TO.C,SW1*%
X82919000Y-55003000D02*
X68719000Y-55003000D01*
X82919000Y-69203000D02*
X82919000Y-55003000D01*
X68719000Y-69203000D02*
X82919000Y-69203000D01*
X68719000Y-55003000D02*
X68719000Y-69203000D01*
D12*
%TO.C,U1*%
X62992000Y-62230000D02*
X45212000Y-62230000D01*
X62992000Y-31750000D02*
X62992000Y-62230000D01*
X57912000Y-31750000D02*
X62992000Y-31750000D01*
X57912000Y-29210000D02*
X57912000Y-31750000D01*
X50292000Y-29210000D02*
X57912000Y-29210000D01*
X50292000Y-31750000D02*
X50292000Y-29210000D01*
X45212000Y-31750000D02*
X50292000Y-31750000D01*
X45212000Y-31750000D02*
X45212000Y-62230000D01*
D16*
%TO.C,SW12*%
X101969000Y-131203000D02*
X87769000Y-131203000D01*
X101969000Y-145403000D02*
X101969000Y-131203000D01*
X87769000Y-145403000D02*
X101969000Y-145403000D01*
X87769000Y-131203000D02*
X87769000Y-145403000D01*
%TO.C,SW11*%
X101969000Y-112153000D02*
X87769000Y-112153000D01*
X101969000Y-126353000D02*
X101969000Y-112153000D01*
X87769000Y-126353000D02*
X101969000Y-126353000D01*
X87769000Y-112153000D02*
X87769000Y-126353000D01*
%TO.C,BT1*%
X143335000Y-50690000D02*
X65335000Y-50690000D01*
X65335000Y-50690000D02*
X65335000Y-30590000D01*
X65335000Y-30590000D02*
X143335000Y-30590000D01*
X143335000Y-30590000D02*
X143335000Y-50690000D01*
%TO.C,D0*%
D17*
X147464428Y-35494857D02*
X146864428Y-35494857D01*
X146864428Y-35352000D01*
X146893000Y-35266285D01*
X146950142Y-35209142D01*
X147007285Y-35180571D01*
X147121571Y-35152000D01*
X147207285Y-35152000D01*
X147321571Y-35180571D01*
X147378714Y-35209142D01*
X147435857Y-35266285D01*
X147464428Y-35352000D01*
X147464428Y-35494857D01*
X146864428Y-34780571D02*
X146864428Y-34723428D01*
X146893000Y-34666285D01*
X146921571Y-34637714D01*
X146978714Y-34609142D01*
X147093000Y-34580571D01*
X147235857Y-34580571D01*
X147350142Y-34609142D01*
X147407285Y-34637714D01*
X147435857Y-34666285D01*
X147464428Y-34723428D01*
X147464428Y-34780571D01*
X147435857Y-34837714D01*
X147407285Y-34866285D01*
X147350142Y-34894857D01*
X147235857Y-34923428D01*
X147093000Y-34923428D01*
X146978714Y-34894857D01*
X146921571Y-34866285D01*
X146893000Y-34837714D01*
X146864428Y-34780571D01*
D15*
X146072238Y-31041952D02*
X146072238Y-30641952D01*
X146300809Y-31041952D02*
X146129380Y-30813380D01*
X146300809Y-30641952D02*
X146072238Y-30870523D01*
%TO.C,OL2*%
D12*
X59142380Y-68762380D02*
X59142380Y-68571904D01*
X59190000Y-68476666D01*
X59285238Y-68381428D01*
X59475714Y-68333809D01*
X59809047Y-68333809D01*
X59999523Y-68381428D01*
X60094761Y-68476666D01*
X60142380Y-68571904D01*
X60142380Y-68762380D01*
X60094761Y-68857619D01*
X59999523Y-68952857D01*
X59809047Y-69000476D01*
X59475714Y-69000476D01*
X59285238Y-68952857D01*
X59190000Y-68857619D01*
X59142380Y-68762380D01*
X60142380Y-67429047D02*
X60142380Y-67905238D01*
X59142380Y-67905238D01*
X59618571Y-67095714D02*
X59618571Y-66762380D01*
X60142380Y-66619523D02*
X60142380Y-67095714D01*
X59142380Y-67095714D01*
X59142380Y-66619523D01*
X60142380Y-66190952D02*
X59142380Y-66190952D01*
X59142380Y-65952857D01*
X59190000Y-65810000D01*
X59285238Y-65714761D01*
X59380476Y-65667142D01*
X59570952Y-65619523D01*
X59713809Y-65619523D01*
X59904285Y-65667142D01*
X59999523Y-65714761D01*
X60094761Y-65810000D01*
X60142380Y-65952857D01*
X60142380Y-66190952D01*
%TO.C,SW29*%
X48234476Y-74444761D02*
X48377333Y-74492380D01*
X48615428Y-74492380D01*
X48710666Y-74444761D01*
X48758285Y-74397142D01*
X48805904Y-74301904D01*
X48805904Y-74206666D01*
X48758285Y-74111428D01*
X48710666Y-74063809D01*
X48615428Y-74016190D01*
X48424952Y-73968571D01*
X48329714Y-73920952D01*
X48282095Y-73873333D01*
X48234476Y-73778095D01*
X48234476Y-73682857D01*
X48282095Y-73587619D01*
X48329714Y-73540000D01*
X48424952Y-73492380D01*
X48663047Y-73492380D01*
X48805904Y-73540000D01*
X49139238Y-73492380D02*
X49377333Y-74492380D01*
X49567809Y-73778095D01*
X49758285Y-74492380D01*
X49996380Y-73492380D01*
X50329714Y-73587619D02*
X50377333Y-73540000D01*
X50472571Y-73492380D01*
X50710666Y-73492380D01*
X50805904Y-73540000D01*
X50853523Y-73587619D01*
X50901142Y-73682857D01*
X50901142Y-73778095D01*
X50853523Y-73920952D01*
X50282095Y-74492380D01*
X50901142Y-74492380D01*
X51377333Y-74492380D02*
X51567809Y-74492380D01*
X51663047Y-74444761D01*
X51710666Y-74397142D01*
X51805904Y-74254285D01*
X51853523Y-74063809D01*
X51853523Y-73682857D01*
X51805904Y-73587619D01*
X51758285Y-73540000D01*
X51663047Y-73492380D01*
X51472571Y-73492380D01*
X51377333Y-73540000D01*
X51329714Y-73587619D01*
X51282095Y-73682857D01*
X51282095Y-73920952D01*
X51329714Y-74016190D01*
X51377333Y-74063809D01*
X51472571Y-74111428D01*
X51663047Y-74111428D01*
X51758285Y-74063809D01*
X51805904Y-74016190D01*
X51853523Y-73920952D01*
%TO.C,SW28*%
X47980476Y-93494761D02*
X48123333Y-93542380D01*
X48361428Y-93542380D01*
X48456666Y-93494761D01*
X48504285Y-93447142D01*
X48551904Y-93351904D01*
X48551904Y-93256666D01*
X48504285Y-93161428D01*
X48456666Y-93113809D01*
X48361428Y-93066190D01*
X48170952Y-93018571D01*
X48075714Y-92970952D01*
X48028095Y-92923333D01*
X47980476Y-92828095D01*
X47980476Y-92732857D01*
X48028095Y-92637619D01*
X48075714Y-92590000D01*
X48170952Y-92542380D01*
X48409047Y-92542380D01*
X48551904Y-92590000D01*
X48885238Y-92542380D02*
X49123333Y-93542380D01*
X49313809Y-92828095D01*
X49504285Y-93542380D01*
X49742380Y-92542380D01*
X50075714Y-92637619D02*
X50123333Y-92590000D01*
X50218571Y-92542380D01*
X50456666Y-92542380D01*
X50551904Y-92590000D01*
X50599523Y-92637619D01*
X50647142Y-92732857D01*
X50647142Y-92828095D01*
X50599523Y-92970952D01*
X50028095Y-93542380D01*
X50647142Y-93542380D01*
X51218571Y-92970952D02*
X51123333Y-92923333D01*
X51075714Y-92875714D01*
X51028095Y-92780476D01*
X51028095Y-92732857D01*
X51075714Y-92637619D01*
X51123333Y-92590000D01*
X51218571Y-92542380D01*
X51409047Y-92542380D01*
X51504285Y-92590000D01*
X51551904Y-92637619D01*
X51599523Y-92732857D01*
X51599523Y-92780476D01*
X51551904Y-92875714D01*
X51504285Y-92923333D01*
X51409047Y-92970952D01*
X51218571Y-92970952D01*
X51123333Y-93018571D01*
X51075714Y-93066190D01*
X51028095Y-93161428D01*
X51028095Y-93351904D01*
X51075714Y-93447142D01*
X51123333Y-93494761D01*
X51218571Y-93542380D01*
X51409047Y-93542380D01*
X51504285Y-93494761D01*
X51551904Y-93447142D01*
X51599523Y-93351904D01*
X51599523Y-93161428D01*
X51551904Y-93066190D01*
X51504285Y-93018571D01*
X51409047Y-92970952D01*
%TO.C,D22*%
D17*
X47007428Y-140555571D02*
X46407428Y-140555571D01*
X46407428Y-140412714D01*
X46436000Y-140327000D01*
X46493142Y-140269857D01*
X46550285Y-140241285D01*
X46664571Y-140212714D01*
X46750285Y-140212714D01*
X46864571Y-140241285D01*
X46921714Y-140269857D01*
X46978857Y-140327000D01*
X47007428Y-140412714D01*
X47007428Y-140555571D01*
X46464571Y-139984142D02*
X46436000Y-139955571D01*
X46407428Y-139898428D01*
X46407428Y-139755571D01*
X46436000Y-139698428D01*
X46464571Y-139669857D01*
X46521714Y-139641285D01*
X46578857Y-139641285D01*
X46664571Y-139669857D01*
X47007428Y-140012714D01*
X47007428Y-139641285D01*
X46464571Y-139412714D02*
X46436000Y-139384142D01*
X46407428Y-139327000D01*
X46407428Y-139184142D01*
X46436000Y-139127000D01*
X46464571Y-139098428D01*
X46521714Y-139069857D01*
X46578857Y-139069857D01*
X46664571Y-139098428D01*
X47007428Y-139441285D01*
X47007428Y-139069857D01*
D15*
X46916952Y-134216761D02*
X46516952Y-134216761D01*
X46916952Y-133988190D02*
X46688380Y-134159619D01*
X46516952Y-133988190D02*
X46745523Y-134216761D01*
%TO.C,D24*%
D17*
X47007428Y-155287571D02*
X46407428Y-155287571D01*
X46407428Y-155144714D01*
X46436000Y-155059000D01*
X46493142Y-155001857D01*
X46550285Y-154973285D01*
X46664571Y-154944714D01*
X46750285Y-154944714D01*
X46864571Y-154973285D01*
X46921714Y-155001857D01*
X46978857Y-155059000D01*
X47007428Y-155144714D01*
X47007428Y-155287571D01*
X46464571Y-154716142D02*
X46436000Y-154687571D01*
X46407428Y-154630428D01*
X46407428Y-154487571D01*
X46436000Y-154430428D01*
X46464571Y-154401857D01*
X46521714Y-154373285D01*
X46578857Y-154373285D01*
X46664571Y-154401857D01*
X47007428Y-154744714D01*
X47007428Y-154373285D01*
X46607428Y-153859000D02*
X47007428Y-153859000D01*
X46378857Y-154001857D02*
X46807428Y-154144714D01*
X46807428Y-153773285D01*
D15*
X46916952Y-148948761D02*
X46516952Y-148948761D01*
X46916952Y-148720190D02*
X46688380Y-148891619D01*
X46516952Y-148720190D02*
X46745523Y-148948761D01*
%TO.C,D23*%
D17*
X49293428Y-155795571D02*
X48693428Y-155795571D01*
X48693428Y-155652714D01*
X48722000Y-155567000D01*
X48779142Y-155509857D01*
X48836285Y-155481285D01*
X48950571Y-155452714D01*
X49036285Y-155452714D01*
X49150571Y-155481285D01*
X49207714Y-155509857D01*
X49264857Y-155567000D01*
X49293428Y-155652714D01*
X49293428Y-155795571D01*
X48750571Y-155224142D02*
X48722000Y-155195571D01*
X48693428Y-155138428D01*
X48693428Y-154995571D01*
X48722000Y-154938428D01*
X48750571Y-154909857D01*
X48807714Y-154881285D01*
X48864857Y-154881285D01*
X48950571Y-154909857D01*
X49293428Y-155252714D01*
X49293428Y-154881285D01*
X48693428Y-154681285D02*
X48693428Y-154309857D01*
X48922000Y-154509857D01*
X48922000Y-154424142D01*
X48950571Y-154367000D01*
X48979142Y-154338428D01*
X49036285Y-154309857D01*
X49179142Y-154309857D01*
X49236285Y-154338428D01*
X49264857Y-154367000D01*
X49293428Y-154424142D01*
X49293428Y-154595571D01*
X49264857Y-154652714D01*
X49236285Y-154681285D01*
D15*
X49202952Y-149456761D02*
X48802952Y-149456761D01*
X49202952Y-149228190D02*
X48974380Y-149399619D01*
X48802952Y-149228190D02*
X49031523Y-149456761D01*
%TO.C,D21*%
D17*
X49293428Y-141063571D02*
X48693428Y-141063571D01*
X48693428Y-140920714D01*
X48722000Y-140835000D01*
X48779142Y-140777857D01*
X48836285Y-140749285D01*
X48950571Y-140720714D01*
X49036285Y-140720714D01*
X49150571Y-140749285D01*
X49207714Y-140777857D01*
X49264857Y-140835000D01*
X49293428Y-140920714D01*
X49293428Y-141063571D01*
X48750571Y-140492142D02*
X48722000Y-140463571D01*
X48693428Y-140406428D01*
X48693428Y-140263571D01*
X48722000Y-140206428D01*
X48750571Y-140177857D01*
X48807714Y-140149285D01*
X48864857Y-140149285D01*
X48950571Y-140177857D01*
X49293428Y-140520714D01*
X49293428Y-140149285D01*
X49293428Y-139577857D02*
X49293428Y-139920714D01*
X49293428Y-139749285D02*
X48693428Y-139749285D01*
X48779142Y-139806428D01*
X48836285Y-139863571D01*
X48864857Y-139920714D01*
D15*
X49202952Y-134724761D02*
X48802952Y-134724761D01*
X49202952Y-134496190D02*
X48974380Y-134667619D01*
X48802952Y-134496190D02*
X49031523Y-134724761D01*
%TO.C,D20*%
D17*
X47007428Y-125823571D02*
X46407428Y-125823571D01*
X46407428Y-125680714D01*
X46436000Y-125595000D01*
X46493142Y-125537857D01*
X46550285Y-125509285D01*
X46664571Y-125480714D01*
X46750285Y-125480714D01*
X46864571Y-125509285D01*
X46921714Y-125537857D01*
X46978857Y-125595000D01*
X47007428Y-125680714D01*
X47007428Y-125823571D01*
X46464571Y-125252142D02*
X46436000Y-125223571D01*
X46407428Y-125166428D01*
X46407428Y-125023571D01*
X46436000Y-124966428D01*
X46464571Y-124937857D01*
X46521714Y-124909285D01*
X46578857Y-124909285D01*
X46664571Y-124937857D01*
X47007428Y-125280714D01*
X47007428Y-124909285D01*
X46407428Y-124537857D02*
X46407428Y-124480714D01*
X46436000Y-124423571D01*
X46464571Y-124395000D01*
X46521714Y-124366428D01*
X46636000Y-124337857D01*
X46778857Y-124337857D01*
X46893142Y-124366428D01*
X46950285Y-124395000D01*
X46978857Y-124423571D01*
X47007428Y-124480714D01*
X47007428Y-124537857D01*
X46978857Y-124595000D01*
X46950285Y-124623571D01*
X46893142Y-124652142D01*
X46778857Y-124680714D01*
X46636000Y-124680714D01*
X46521714Y-124652142D01*
X46464571Y-124623571D01*
X46436000Y-124595000D01*
X46407428Y-124537857D01*
D15*
X46916952Y-119484761D02*
X46516952Y-119484761D01*
X46916952Y-119256190D02*
X46688380Y-119427619D01*
X46516952Y-119256190D02*
X46745523Y-119484761D01*
%TO.C,D19*%
D17*
X49293428Y-126331571D02*
X48693428Y-126331571D01*
X48693428Y-126188714D01*
X48722000Y-126103000D01*
X48779142Y-126045857D01*
X48836285Y-126017285D01*
X48950571Y-125988714D01*
X49036285Y-125988714D01*
X49150571Y-126017285D01*
X49207714Y-126045857D01*
X49264857Y-126103000D01*
X49293428Y-126188714D01*
X49293428Y-126331571D01*
X49293428Y-125417285D02*
X49293428Y-125760142D01*
X49293428Y-125588714D02*
X48693428Y-125588714D01*
X48779142Y-125645857D01*
X48836285Y-125703000D01*
X48864857Y-125760142D01*
X49293428Y-125131571D02*
X49293428Y-125017285D01*
X49264857Y-124960142D01*
X49236285Y-124931571D01*
X49150571Y-124874428D01*
X49036285Y-124845857D01*
X48807714Y-124845857D01*
X48750571Y-124874428D01*
X48722000Y-124903000D01*
X48693428Y-124960142D01*
X48693428Y-125074428D01*
X48722000Y-125131571D01*
X48750571Y-125160142D01*
X48807714Y-125188714D01*
X48950571Y-125188714D01*
X49007714Y-125160142D01*
X49036285Y-125131571D01*
X49064857Y-125074428D01*
X49064857Y-124960142D01*
X49036285Y-124903000D01*
X49007714Y-124874428D01*
X48950571Y-124845857D01*
D15*
X49202952Y-119992761D02*
X48802952Y-119992761D01*
X49202952Y-119764190D02*
X48974380Y-119935619D01*
X48802952Y-119764190D02*
X49031523Y-119992761D01*
%TO.C,D18*%
D17*
X51579428Y-156303571D02*
X50979428Y-156303571D01*
X50979428Y-156160714D01*
X51008000Y-156075000D01*
X51065142Y-156017857D01*
X51122285Y-155989285D01*
X51236571Y-155960714D01*
X51322285Y-155960714D01*
X51436571Y-155989285D01*
X51493714Y-156017857D01*
X51550857Y-156075000D01*
X51579428Y-156160714D01*
X51579428Y-156303571D01*
X51579428Y-155389285D02*
X51579428Y-155732142D01*
X51579428Y-155560714D02*
X50979428Y-155560714D01*
X51065142Y-155617857D01*
X51122285Y-155675000D01*
X51150857Y-155732142D01*
X51236571Y-155046428D02*
X51208000Y-155103571D01*
X51179428Y-155132142D01*
X51122285Y-155160714D01*
X51093714Y-155160714D01*
X51036571Y-155132142D01*
X51008000Y-155103571D01*
X50979428Y-155046428D01*
X50979428Y-154932142D01*
X51008000Y-154875000D01*
X51036571Y-154846428D01*
X51093714Y-154817857D01*
X51122285Y-154817857D01*
X51179428Y-154846428D01*
X51208000Y-154875000D01*
X51236571Y-154932142D01*
X51236571Y-155046428D01*
X51265142Y-155103571D01*
X51293714Y-155132142D01*
X51350857Y-155160714D01*
X51465142Y-155160714D01*
X51522285Y-155132142D01*
X51550857Y-155103571D01*
X51579428Y-155046428D01*
X51579428Y-154932142D01*
X51550857Y-154875000D01*
X51522285Y-154846428D01*
X51465142Y-154817857D01*
X51350857Y-154817857D01*
X51293714Y-154846428D01*
X51265142Y-154875000D01*
X51236571Y-154932142D01*
D15*
X51488952Y-149964761D02*
X51088952Y-149964761D01*
X51488952Y-149736190D02*
X51260380Y-149907619D01*
X51088952Y-149736190D02*
X51317523Y-149964761D01*
%TO.C,D17*%
D17*
X53865428Y-156811571D02*
X53265428Y-156811571D01*
X53265428Y-156668714D01*
X53294000Y-156583000D01*
X53351142Y-156525857D01*
X53408285Y-156497285D01*
X53522571Y-156468714D01*
X53608285Y-156468714D01*
X53722571Y-156497285D01*
X53779714Y-156525857D01*
X53836857Y-156583000D01*
X53865428Y-156668714D01*
X53865428Y-156811571D01*
X53865428Y-155897285D02*
X53865428Y-156240142D01*
X53865428Y-156068714D02*
X53265428Y-156068714D01*
X53351142Y-156125857D01*
X53408285Y-156183000D01*
X53436857Y-156240142D01*
X53265428Y-155697285D02*
X53265428Y-155297285D01*
X53865428Y-155554428D01*
D15*
X53774952Y-150472761D02*
X53374952Y-150472761D01*
X53774952Y-150244190D02*
X53546380Y-150415619D01*
X53374952Y-150244190D02*
X53603523Y-150472761D01*
%TO.C,D16*%
D17*
X51579428Y-141571571D02*
X50979428Y-141571571D01*
X50979428Y-141428714D01*
X51008000Y-141343000D01*
X51065142Y-141285857D01*
X51122285Y-141257285D01*
X51236571Y-141228714D01*
X51322285Y-141228714D01*
X51436571Y-141257285D01*
X51493714Y-141285857D01*
X51550857Y-141343000D01*
X51579428Y-141428714D01*
X51579428Y-141571571D01*
X51579428Y-140657285D02*
X51579428Y-141000142D01*
X51579428Y-140828714D02*
X50979428Y-140828714D01*
X51065142Y-140885857D01*
X51122285Y-140943000D01*
X51150857Y-141000142D01*
X50979428Y-140143000D02*
X50979428Y-140257285D01*
X51008000Y-140314428D01*
X51036571Y-140343000D01*
X51122285Y-140400142D01*
X51236571Y-140428714D01*
X51465142Y-140428714D01*
X51522285Y-140400142D01*
X51550857Y-140371571D01*
X51579428Y-140314428D01*
X51579428Y-140200142D01*
X51550857Y-140143000D01*
X51522285Y-140114428D01*
X51465142Y-140085857D01*
X51322285Y-140085857D01*
X51265142Y-140114428D01*
X51236571Y-140143000D01*
X51208000Y-140200142D01*
X51208000Y-140314428D01*
X51236571Y-140371571D01*
X51265142Y-140400142D01*
X51322285Y-140428714D01*
D15*
X51488952Y-135232761D02*
X51088952Y-135232761D01*
X51488952Y-135004190D02*
X51260380Y-135175619D01*
X51088952Y-135004190D02*
X51317523Y-135232761D01*
%TO.C,D15*%
D17*
X53865428Y-142079571D02*
X53265428Y-142079571D01*
X53265428Y-141936714D01*
X53294000Y-141851000D01*
X53351142Y-141793857D01*
X53408285Y-141765285D01*
X53522571Y-141736714D01*
X53608285Y-141736714D01*
X53722571Y-141765285D01*
X53779714Y-141793857D01*
X53836857Y-141851000D01*
X53865428Y-141936714D01*
X53865428Y-142079571D01*
X53865428Y-141165285D02*
X53865428Y-141508142D01*
X53865428Y-141336714D02*
X53265428Y-141336714D01*
X53351142Y-141393857D01*
X53408285Y-141451000D01*
X53436857Y-141508142D01*
X53265428Y-140622428D02*
X53265428Y-140908142D01*
X53551142Y-140936714D01*
X53522571Y-140908142D01*
X53494000Y-140851000D01*
X53494000Y-140708142D01*
X53522571Y-140651000D01*
X53551142Y-140622428D01*
X53608285Y-140593857D01*
X53751142Y-140593857D01*
X53808285Y-140622428D01*
X53836857Y-140651000D01*
X53865428Y-140708142D01*
X53865428Y-140851000D01*
X53836857Y-140908142D01*
X53808285Y-140936714D01*
D15*
X53774952Y-135740761D02*
X53374952Y-135740761D01*
X53774952Y-135512190D02*
X53546380Y-135683619D01*
X53374952Y-135512190D02*
X53603523Y-135740761D01*
%TO.C,D14*%
D17*
X51579428Y-126839571D02*
X50979428Y-126839571D01*
X50979428Y-126696714D01*
X51008000Y-126611000D01*
X51065142Y-126553857D01*
X51122285Y-126525285D01*
X51236571Y-126496714D01*
X51322285Y-126496714D01*
X51436571Y-126525285D01*
X51493714Y-126553857D01*
X51550857Y-126611000D01*
X51579428Y-126696714D01*
X51579428Y-126839571D01*
X51579428Y-125925285D02*
X51579428Y-126268142D01*
X51579428Y-126096714D02*
X50979428Y-126096714D01*
X51065142Y-126153857D01*
X51122285Y-126211000D01*
X51150857Y-126268142D01*
X51179428Y-125411000D02*
X51579428Y-125411000D01*
X50950857Y-125553857D02*
X51379428Y-125696714D01*
X51379428Y-125325285D01*
D15*
X51488952Y-120500761D02*
X51088952Y-120500761D01*
X51488952Y-120272190D02*
X51260380Y-120443619D01*
X51088952Y-120272190D02*
X51317523Y-120500761D01*
%TO.C,D13*%
D17*
X53865428Y-127347571D02*
X53265428Y-127347571D01*
X53265428Y-127204714D01*
X53294000Y-127119000D01*
X53351142Y-127061857D01*
X53408285Y-127033285D01*
X53522571Y-127004714D01*
X53608285Y-127004714D01*
X53722571Y-127033285D01*
X53779714Y-127061857D01*
X53836857Y-127119000D01*
X53865428Y-127204714D01*
X53865428Y-127347571D01*
X53865428Y-126433285D02*
X53865428Y-126776142D01*
X53865428Y-126604714D02*
X53265428Y-126604714D01*
X53351142Y-126661857D01*
X53408285Y-126719000D01*
X53436857Y-126776142D01*
X53265428Y-126233285D02*
X53265428Y-125861857D01*
X53494000Y-126061857D01*
X53494000Y-125976142D01*
X53522571Y-125919000D01*
X53551142Y-125890428D01*
X53608285Y-125861857D01*
X53751142Y-125861857D01*
X53808285Y-125890428D01*
X53836857Y-125919000D01*
X53865428Y-125976142D01*
X53865428Y-126147571D01*
X53836857Y-126204714D01*
X53808285Y-126233285D01*
D15*
X53774952Y-121008761D02*
X53374952Y-121008761D01*
X53774952Y-120780190D02*
X53546380Y-120951619D01*
X53374952Y-120780190D02*
X53603523Y-121008761D01*
%TO.C,D12*%
D17*
X56151428Y-157319571D02*
X55551428Y-157319571D01*
X55551428Y-157176714D01*
X55580000Y-157091000D01*
X55637142Y-157033857D01*
X55694285Y-157005285D01*
X55808571Y-156976714D01*
X55894285Y-156976714D01*
X56008571Y-157005285D01*
X56065714Y-157033857D01*
X56122857Y-157091000D01*
X56151428Y-157176714D01*
X56151428Y-157319571D01*
X56151428Y-156405285D02*
X56151428Y-156748142D01*
X56151428Y-156576714D02*
X55551428Y-156576714D01*
X55637142Y-156633857D01*
X55694285Y-156691000D01*
X55722857Y-156748142D01*
X55608571Y-156176714D02*
X55580000Y-156148142D01*
X55551428Y-156091000D01*
X55551428Y-155948142D01*
X55580000Y-155891000D01*
X55608571Y-155862428D01*
X55665714Y-155833857D01*
X55722857Y-155833857D01*
X55808571Y-155862428D01*
X56151428Y-156205285D01*
X56151428Y-155833857D01*
D15*
X56060952Y-150980761D02*
X55660952Y-150980761D01*
X56060952Y-150752190D02*
X55832380Y-150923619D01*
X55660952Y-150752190D02*
X55889523Y-150980761D01*
%TO.C,D11*%
D17*
X58437428Y-157827571D02*
X57837428Y-157827571D01*
X57837428Y-157684714D01*
X57866000Y-157599000D01*
X57923142Y-157541857D01*
X57980285Y-157513285D01*
X58094571Y-157484714D01*
X58180285Y-157484714D01*
X58294571Y-157513285D01*
X58351714Y-157541857D01*
X58408857Y-157599000D01*
X58437428Y-157684714D01*
X58437428Y-157827571D01*
X58437428Y-156913285D02*
X58437428Y-157256142D01*
X58437428Y-157084714D02*
X57837428Y-157084714D01*
X57923142Y-157141857D01*
X57980285Y-157199000D01*
X58008857Y-157256142D01*
X58437428Y-156341857D02*
X58437428Y-156684714D01*
X58437428Y-156513285D02*
X57837428Y-156513285D01*
X57923142Y-156570428D01*
X57980285Y-156627571D01*
X58008857Y-156684714D01*
D15*
X58346952Y-151488761D02*
X57946952Y-151488761D01*
X58346952Y-151260190D02*
X58118380Y-151431619D01*
X57946952Y-151260190D02*
X58175523Y-151488761D01*
%TO.C,D10*%
D17*
X56151428Y-142587571D02*
X55551428Y-142587571D01*
X55551428Y-142444714D01*
X55580000Y-142359000D01*
X55637142Y-142301857D01*
X55694285Y-142273285D01*
X55808571Y-142244714D01*
X55894285Y-142244714D01*
X56008571Y-142273285D01*
X56065714Y-142301857D01*
X56122857Y-142359000D01*
X56151428Y-142444714D01*
X56151428Y-142587571D01*
X56151428Y-141673285D02*
X56151428Y-142016142D01*
X56151428Y-141844714D02*
X55551428Y-141844714D01*
X55637142Y-141901857D01*
X55694285Y-141959000D01*
X55722857Y-142016142D01*
X55551428Y-141301857D02*
X55551428Y-141244714D01*
X55580000Y-141187571D01*
X55608571Y-141159000D01*
X55665714Y-141130428D01*
X55780000Y-141101857D01*
X55922857Y-141101857D01*
X56037142Y-141130428D01*
X56094285Y-141159000D01*
X56122857Y-141187571D01*
X56151428Y-141244714D01*
X56151428Y-141301857D01*
X56122857Y-141359000D01*
X56094285Y-141387571D01*
X56037142Y-141416142D01*
X55922857Y-141444714D01*
X55780000Y-141444714D01*
X55665714Y-141416142D01*
X55608571Y-141387571D01*
X55580000Y-141359000D01*
X55551428Y-141301857D01*
D15*
X56060952Y-136248761D02*
X55660952Y-136248761D01*
X56060952Y-136020190D02*
X55832380Y-136191619D01*
X55660952Y-136020190D02*
X55889523Y-136248761D01*
%TO.C,D9*%
D17*
X58437428Y-142809857D02*
X57837428Y-142809857D01*
X57837428Y-142667000D01*
X57866000Y-142581285D01*
X57923142Y-142524142D01*
X57980285Y-142495571D01*
X58094571Y-142467000D01*
X58180285Y-142467000D01*
X58294571Y-142495571D01*
X58351714Y-142524142D01*
X58408857Y-142581285D01*
X58437428Y-142667000D01*
X58437428Y-142809857D01*
X58437428Y-142181285D02*
X58437428Y-142067000D01*
X58408857Y-142009857D01*
X58380285Y-141981285D01*
X58294571Y-141924142D01*
X58180285Y-141895571D01*
X57951714Y-141895571D01*
X57894571Y-141924142D01*
X57866000Y-141952714D01*
X57837428Y-142009857D01*
X57837428Y-142124142D01*
X57866000Y-142181285D01*
X57894571Y-142209857D01*
X57951714Y-142238428D01*
X58094571Y-142238428D01*
X58151714Y-142209857D01*
X58180285Y-142181285D01*
X58208857Y-142124142D01*
X58208857Y-142009857D01*
X58180285Y-141952714D01*
X58151714Y-141924142D01*
X58094571Y-141895571D01*
D15*
X58346952Y-136756761D02*
X57946952Y-136756761D01*
X58346952Y-136528190D02*
X58118380Y-136699619D01*
X57946952Y-136528190D02*
X58175523Y-136756761D01*
%TO.C,D8*%
D17*
X56151428Y-127569857D02*
X55551428Y-127569857D01*
X55551428Y-127427000D01*
X55580000Y-127341285D01*
X55637142Y-127284142D01*
X55694285Y-127255571D01*
X55808571Y-127227000D01*
X55894285Y-127227000D01*
X56008571Y-127255571D01*
X56065714Y-127284142D01*
X56122857Y-127341285D01*
X56151428Y-127427000D01*
X56151428Y-127569857D01*
X55808571Y-126884142D02*
X55780000Y-126941285D01*
X55751428Y-126969857D01*
X55694285Y-126998428D01*
X55665714Y-126998428D01*
X55608571Y-126969857D01*
X55580000Y-126941285D01*
X55551428Y-126884142D01*
X55551428Y-126769857D01*
X55580000Y-126712714D01*
X55608571Y-126684142D01*
X55665714Y-126655571D01*
X55694285Y-126655571D01*
X55751428Y-126684142D01*
X55780000Y-126712714D01*
X55808571Y-126769857D01*
X55808571Y-126884142D01*
X55837142Y-126941285D01*
X55865714Y-126969857D01*
X55922857Y-126998428D01*
X56037142Y-126998428D01*
X56094285Y-126969857D01*
X56122857Y-126941285D01*
X56151428Y-126884142D01*
X56151428Y-126769857D01*
X56122857Y-126712714D01*
X56094285Y-126684142D01*
X56037142Y-126655571D01*
X55922857Y-126655571D01*
X55865714Y-126684142D01*
X55837142Y-126712714D01*
X55808571Y-126769857D01*
D15*
X56060952Y-121516761D02*
X55660952Y-121516761D01*
X56060952Y-121288190D02*
X55832380Y-121459619D01*
X55660952Y-121288190D02*
X55889523Y-121516761D01*
%TO.C,D7*%
D17*
X58437428Y-128077857D02*
X57837428Y-128077857D01*
X57837428Y-127935000D01*
X57866000Y-127849285D01*
X57923142Y-127792142D01*
X57980285Y-127763571D01*
X58094571Y-127735000D01*
X58180285Y-127735000D01*
X58294571Y-127763571D01*
X58351714Y-127792142D01*
X58408857Y-127849285D01*
X58437428Y-127935000D01*
X58437428Y-128077857D01*
X57837428Y-127535000D02*
X57837428Y-127135000D01*
X58437428Y-127392142D01*
D15*
X58346952Y-122024761D02*
X57946952Y-122024761D01*
X58346952Y-121796190D02*
X58118380Y-121967619D01*
X57946952Y-121796190D02*
X58175523Y-122024761D01*
%TO.C,D6*%
D17*
X60723428Y-158049857D02*
X60123428Y-158049857D01*
X60123428Y-157907000D01*
X60152000Y-157821285D01*
X60209142Y-157764142D01*
X60266285Y-157735571D01*
X60380571Y-157707000D01*
X60466285Y-157707000D01*
X60580571Y-157735571D01*
X60637714Y-157764142D01*
X60694857Y-157821285D01*
X60723428Y-157907000D01*
X60723428Y-158049857D01*
X60123428Y-157192714D02*
X60123428Y-157307000D01*
X60152000Y-157364142D01*
X60180571Y-157392714D01*
X60266285Y-157449857D01*
X60380571Y-157478428D01*
X60609142Y-157478428D01*
X60666285Y-157449857D01*
X60694857Y-157421285D01*
X60723428Y-157364142D01*
X60723428Y-157249857D01*
X60694857Y-157192714D01*
X60666285Y-157164142D01*
X60609142Y-157135571D01*
X60466285Y-157135571D01*
X60409142Y-157164142D01*
X60380571Y-157192714D01*
X60352000Y-157249857D01*
X60352000Y-157364142D01*
X60380571Y-157421285D01*
X60409142Y-157449857D01*
X60466285Y-157478428D01*
D15*
X60632952Y-151996761D02*
X60232952Y-151996761D01*
X60632952Y-151768190D02*
X60404380Y-151939619D01*
X60232952Y-151768190D02*
X60461523Y-151996761D01*
%TO.C,D5*%
D17*
X63009428Y-158557857D02*
X62409428Y-158557857D01*
X62409428Y-158415000D01*
X62438000Y-158329285D01*
X62495142Y-158272142D01*
X62552285Y-158243571D01*
X62666571Y-158215000D01*
X62752285Y-158215000D01*
X62866571Y-158243571D01*
X62923714Y-158272142D01*
X62980857Y-158329285D01*
X63009428Y-158415000D01*
X63009428Y-158557857D01*
X62409428Y-157672142D02*
X62409428Y-157957857D01*
X62695142Y-157986428D01*
X62666571Y-157957857D01*
X62638000Y-157900714D01*
X62638000Y-157757857D01*
X62666571Y-157700714D01*
X62695142Y-157672142D01*
X62752285Y-157643571D01*
X62895142Y-157643571D01*
X62952285Y-157672142D01*
X62980857Y-157700714D01*
X63009428Y-157757857D01*
X63009428Y-157900714D01*
X62980857Y-157957857D01*
X62952285Y-157986428D01*
D15*
X62918952Y-152504761D02*
X62518952Y-152504761D01*
X62918952Y-152276190D02*
X62690380Y-152447619D01*
X62518952Y-152276190D02*
X62747523Y-152504761D01*
%TO.C,D4*%
D17*
X60723428Y-143317857D02*
X60123428Y-143317857D01*
X60123428Y-143175000D01*
X60152000Y-143089285D01*
X60209142Y-143032142D01*
X60266285Y-143003571D01*
X60380571Y-142975000D01*
X60466285Y-142975000D01*
X60580571Y-143003571D01*
X60637714Y-143032142D01*
X60694857Y-143089285D01*
X60723428Y-143175000D01*
X60723428Y-143317857D01*
X60323428Y-142460714D02*
X60723428Y-142460714D01*
X60094857Y-142603571D02*
X60523428Y-142746428D01*
X60523428Y-142375000D01*
D15*
X60632952Y-137264761D02*
X60232952Y-137264761D01*
X60632952Y-137036190D02*
X60404380Y-137207619D01*
X60232952Y-137036190D02*
X60461523Y-137264761D01*
%TO.C,D3*%
D17*
X63009428Y-143825857D02*
X62409428Y-143825857D01*
X62409428Y-143683000D01*
X62438000Y-143597285D01*
X62495142Y-143540142D01*
X62552285Y-143511571D01*
X62666571Y-143483000D01*
X62752285Y-143483000D01*
X62866571Y-143511571D01*
X62923714Y-143540142D01*
X62980857Y-143597285D01*
X63009428Y-143683000D01*
X63009428Y-143825857D01*
X62409428Y-143283000D02*
X62409428Y-142911571D01*
X62638000Y-143111571D01*
X62638000Y-143025857D01*
X62666571Y-142968714D01*
X62695142Y-142940142D01*
X62752285Y-142911571D01*
X62895142Y-142911571D01*
X62952285Y-142940142D01*
X62980857Y-142968714D01*
X63009428Y-143025857D01*
X63009428Y-143197285D01*
X62980857Y-143254428D01*
X62952285Y-143283000D01*
D15*
X62918952Y-137772761D02*
X62518952Y-137772761D01*
X62918952Y-137544190D02*
X62690380Y-137715619D01*
X62518952Y-137544190D02*
X62747523Y-137772761D01*
%TO.C,D2*%
D17*
X60723428Y-128585857D02*
X60123428Y-128585857D01*
X60123428Y-128443000D01*
X60152000Y-128357285D01*
X60209142Y-128300142D01*
X60266285Y-128271571D01*
X60380571Y-128243000D01*
X60466285Y-128243000D01*
X60580571Y-128271571D01*
X60637714Y-128300142D01*
X60694857Y-128357285D01*
X60723428Y-128443000D01*
X60723428Y-128585857D01*
X60180571Y-128014428D02*
X60152000Y-127985857D01*
X60123428Y-127928714D01*
X60123428Y-127785857D01*
X60152000Y-127728714D01*
X60180571Y-127700142D01*
X60237714Y-127671571D01*
X60294857Y-127671571D01*
X60380571Y-127700142D01*
X60723428Y-128043000D01*
X60723428Y-127671571D01*
D15*
X60632952Y-122532761D02*
X60232952Y-122532761D01*
X60632952Y-122304190D02*
X60404380Y-122475619D01*
X60232952Y-122304190D02*
X60461523Y-122532761D01*
%TO.C,D1*%
D17*
X63009428Y-129093857D02*
X62409428Y-129093857D01*
X62409428Y-128951000D01*
X62438000Y-128865285D01*
X62495142Y-128808142D01*
X62552285Y-128779571D01*
X62666571Y-128751000D01*
X62752285Y-128751000D01*
X62866571Y-128779571D01*
X62923714Y-128808142D01*
X62980857Y-128865285D01*
X63009428Y-128951000D01*
X63009428Y-129093857D01*
X63009428Y-128179571D02*
X63009428Y-128522428D01*
X63009428Y-128351000D02*
X62409428Y-128351000D01*
X62495142Y-128408142D01*
X62552285Y-128465285D01*
X62580857Y-128522428D01*
D15*
X62918952Y-123040761D02*
X62518952Y-123040761D01*
X62918952Y-122812190D02*
X62690380Y-122983619D01*
X62518952Y-122812190D02*
X62747523Y-123040761D01*
%TD*%
%LPC*%
D18*
%TO.C,D0*%
X147193000Y-38481000D03*
D19*
X147193000Y-30861000D03*
%TD*%
D20*
%TO.C,SW30*%
X143814800Y-37109400D03*
X143814800Y-34569400D03*
X143814800Y-32029400D03*
%TD*%
D21*
%TO.C,SW29*%
X47244000Y-78740000D03*
D22*
X47244000Y-81240000D03*
X47244000Y-83740000D03*
D23*
X54744000Y-75640000D03*
X54744000Y-86840000D03*
%TD*%
D21*
%TO.C,SW28*%
X46990000Y-97790000D03*
D22*
X46990000Y-100290000D03*
X46990000Y-102790000D03*
D23*
X54490000Y-94690000D03*
X54490000Y-105890000D03*
%TD*%
D21*
%TO.C,SW32*%
X58166000Y-93345000D03*
D22*
X58166000Y-90845000D03*
X58166000Y-88345000D03*
D24*
X50666000Y-96445000D03*
X50666000Y-85245000D03*
%TD*%
D22*
%TO.C,SW31*%
X55880000Y-47140000D03*
X51380000Y-47140000D03*
X55880000Y-40640000D03*
X51380000Y-40640000D03*
%TD*%
D18*
%TO.C,D22*%
X46736000Y-143256000D03*
D19*
X46736000Y-135636000D03*
%TD*%
D18*
%TO.C,D24*%
X46736000Y-157988000D03*
D19*
X46736000Y-150368000D03*
%TD*%
D18*
%TO.C,D23*%
X49022000Y-158496000D03*
D19*
X49022000Y-150876000D03*
%TD*%
D18*
%TO.C,D21*%
X49022000Y-143764000D03*
D19*
X49022000Y-136144000D03*
%TD*%
D18*
%TO.C,D20*%
X46736000Y-128524000D03*
D19*
X46736000Y-120904000D03*
%TD*%
D18*
%TO.C,D19*%
X49022000Y-129032000D03*
D19*
X49022000Y-121412000D03*
%TD*%
D18*
%TO.C,D18*%
X51308000Y-159004000D03*
D19*
X51308000Y-151384000D03*
%TD*%
D18*
%TO.C,D17*%
X53594000Y-159512000D03*
D19*
X53594000Y-151892000D03*
%TD*%
D18*
%TO.C,D16*%
X51308000Y-144272000D03*
D19*
X51308000Y-136652000D03*
%TD*%
D18*
%TO.C,D15*%
X53594000Y-144780000D03*
D19*
X53594000Y-137160000D03*
%TD*%
D18*
%TO.C,D14*%
X51308000Y-129540000D03*
D19*
X51308000Y-121920000D03*
%TD*%
D18*
%TO.C,D13*%
X53594000Y-130048000D03*
D19*
X53594000Y-122428000D03*
%TD*%
D18*
%TO.C,D12*%
X55880000Y-160020000D03*
D19*
X55880000Y-152400000D03*
%TD*%
D18*
%TO.C,D11*%
X58166000Y-160528000D03*
D19*
X58166000Y-152908000D03*
%TD*%
D18*
%TO.C,D10*%
X55880000Y-145288000D03*
D19*
X55880000Y-137668000D03*
%TD*%
D18*
%TO.C,D9*%
X58166000Y-145796000D03*
D19*
X58166000Y-138176000D03*
%TD*%
D18*
%TO.C,D8*%
X55880000Y-130556000D03*
D19*
X55880000Y-122936000D03*
%TD*%
D18*
%TO.C,D7*%
X58166000Y-131064000D03*
D19*
X58166000Y-123444000D03*
%TD*%
D18*
%TO.C,D6*%
X60452000Y-161036000D03*
D19*
X60452000Y-153416000D03*
%TD*%
D18*
%TO.C,D5*%
X62738000Y-161544000D03*
D19*
X62738000Y-153924000D03*
%TD*%
D18*
%TO.C,D4*%
X60452000Y-146304000D03*
D19*
X60452000Y-138684000D03*
%TD*%
D18*
%TO.C,D3*%
X62738000Y-146812000D03*
D19*
X62738000Y-139192000D03*
%TD*%
D18*
%TO.C,D2*%
X60452000Y-131572000D03*
D19*
X60452000Y-123952000D03*
%TD*%
D18*
%TO.C,D1*%
X62738000Y-132080000D03*
D19*
X62738000Y-124460000D03*
%TD*%
D25*
%TO.C,SW2*%
X80899000Y-81153000D03*
X70739000Y-81153000D03*
D26*
X75819000Y-81153000D03*
D27*
X78359000Y-76073000D03*
X72009000Y-78613000D03*
%TD*%
D25*
%TO.C,SW3*%
X80899000Y-100203000D03*
X70739000Y-100203000D03*
D26*
X75819000Y-100203000D03*
D27*
X78359000Y-95123000D03*
X72009000Y-97663000D03*
%TD*%
D25*
%TO.C,SW4*%
X80899000Y-119253000D03*
X70739000Y-119253000D03*
D26*
X75819000Y-119253000D03*
D27*
X78359000Y-114173000D03*
X72009000Y-116713000D03*
%TD*%
D25*
%TO.C,SW5*%
X80899000Y-138303000D03*
X70739000Y-138303000D03*
D26*
X75819000Y-138303000D03*
D27*
X78359000Y-133223000D03*
X72009000Y-135763000D03*
%TD*%
D25*
%TO.C,SW6*%
X80899000Y-157353000D03*
X70739000Y-157353000D03*
D26*
X75819000Y-157353000D03*
D27*
X78359000Y-152273000D03*
X72009000Y-154813000D03*
%TD*%
D25*
%TO.C,SW7*%
X80264000Y-157353000D03*
X90424000Y-157353000D03*
D26*
X85344000Y-157353000D03*
D27*
X82804000Y-162433000D03*
X89154000Y-159893000D03*
%TD*%
D25*
%TO.C,SW8*%
X99949000Y-62103000D03*
X89789000Y-62103000D03*
D26*
X94869000Y-62103000D03*
D27*
X97409000Y-57023000D03*
X91059000Y-59563000D03*
%TD*%
D25*
%TO.C,SW9*%
X99949000Y-81153000D03*
X89789000Y-81153000D03*
D26*
X94869000Y-81153000D03*
D27*
X97409000Y-76073000D03*
X91059000Y-78613000D03*
%TD*%
D25*
%TO.C,SW10*%
X99949000Y-100203000D03*
X89789000Y-100203000D03*
D26*
X94869000Y-100203000D03*
D27*
X97409000Y-95123000D03*
X91059000Y-97663000D03*
%TD*%
D25*
%TO.C,SW13*%
X99949000Y-157353000D03*
X89789000Y-157353000D03*
D26*
X94869000Y-157353000D03*
D27*
X97409000Y-152273000D03*
X91059000Y-154813000D03*
%TD*%
D25*
%TO.C,SW14*%
X118999000Y-62103000D03*
X108839000Y-62103000D03*
D26*
X113919000Y-62103000D03*
D27*
X116459000Y-57023000D03*
X110109000Y-59563000D03*
%TD*%
D25*
%TO.C,SW15*%
X118999000Y-81153000D03*
X108839000Y-81153000D03*
D26*
X113919000Y-81153000D03*
D27*
X116459000Y-76073000D03*
X110109000Y-78613000D03*
%TD*%
D25*
%TO.C,SW16*%
X118999000Y-100203000D03*
X108839000Y-100203000D03*
D26*
X113919000Y-100203000D03*
D27*
X116459000Y-95123000D03*
X110109000Y-97663000D03*
%TD*%
D25*
%TO.C,SW17*%
X118999000Y-119253000D03*
X108839000Y-119253000D03*
D26*
X113919000Y-119253000D03*
D27*
X116459000Y-114173000D03*
X110109000Y-116713000D03*
%TD*%
D25*
%TO.C,SW18*%
X118999000Y-138303000D03*
X108839000Y-138303000D03*
D26*
X113919000Y-138303000D03*
D27*
X116459000Y-133223000D03*
X110109000Y-135763000D03*
%TD*%
D25*
%TO.C,SW19*%
X118999000Y-157353000D03*
X108839000Y-157353000D03*
D26*
X113919000Y-157353000D03*
D27*
X116459000Y-152273000D03*
X110109000Y-154813000D03*
%TD*%
D25*
%TO.C,SW20*%
X138049000Y-62103000D03*
X127889000Y-62103000D03*
D26*
X132969000Y-62103000D03*
D27*
X135509000Y-57023000D03*
X129159000Y-59563000D03*
%TD*%
D25*
%TO.C,SW21*%
X138049000Y-81153000D03*
X127889000Y-81153000D03*
D26*
X132969000Y-81153000D03*
D27*
X135509000Y-76073000D03*
X129159000Y-78613000D03*
%TD*%
D25*
%TO.C,SW22*%
X138049000Y-100203000D03*
X127889000Y-100203000D03*
D26*
X132969000Y-100203000D03*
D27*
X135509000Y-95123000D03*
X129159000Y-97663000D03*
%TD*%
D25*
%TO.C,SW23*%
X138049000Y-119253000D03*
X127889000Y-119253000D03*
D26*
X132969000Y-119253000D03*
D27*
X135509000Y-114173000D03*
X129159000Y-116713000D03*
%TD*%
D25*
%TO.C,SW24*%
X138049000Y-138303000D03*
X127889000Y-138303000D03*
D26*
X132969000Y-138303000D03*
D27*
X135509000Y-133223000D03*
X129159000Y-135763000D03*
%TD*%
D25*
%TO.C,SW25*%
X138049000Y-157353000D03*
X127889000Y-157353000D03*
D26*
X132969000Y-157353000D03*
D27*
X135509000Y-152273000D03*
X129159000Y-154813000D03*
%TD*%
D25*
%TO.C,SW26*%
X138049000Y-109728000D03*
X127889000Y-109728000D03*
D26*
X132969000Y-109728000D03*
D27*
X135509000Y-104648000D03*
X129159000Y-107188000D03*
%TD*%
D25*
%TO.C,SW27*%
X138049000Y-147828000D03*
X127889000Y-147828000D03*
D26*
X132969000Y-147828000D03*
D27*
X135509000Y-142748000D03*
X129159000Y-145288000D03*
%TD*%
D25*
%TO.C,SW1*%
X80899000Y-62103000D03*
X70739000Y-62103000D03*
D26*
X75819000Y-62103000D03*
D27*
X78359000Y-57023000D03*
X72009000Y-59563000D03*
%TD*%
D28*
%TO.C,U1*%
X61722000Y-33020000D03*
X61722000Y-35560000D03*
X61722000Y-38100000D03*
X61722000Y-40640000D03*
X61722000Y-43180000D03*
X61722000Y-45720000D03*
X61722000Y-48260000D03*
X61722000Y-50800000D03*
X61722000Y-53340000D03*
X61722000Y-55880000D03*
X61722000Y-58420000D03*
X61722000Y-60960000D03*
X46482000Y-60960000D03*
X46482000Y-58420000D03*
X46482000Y-55880000D03*
X46482000Y-53340000D03*
X46482000Y-50800000D03*
X46482000Y-48260000D03*
X46482000Y-45720000D03*
X46482000Y-43180000D03*
X46482000Y-40640000D03*
X46482000Y-38100000D03*
X46482000Y-35560000D03*
D29*
X46482000Y-33020000D03*
%TD*%
D25*
%TO.C,SW12*%
X99949000Y-138303000D03*
X89789000Y-138303000D03*
D26*
X94869000Y-138303000D03*
D27*
X97409000Y-133223000D03*
X91059000Y-135763000D03*
%TD*%
D30*
%TO.C,H1*%
X135890000Y-36830000D03*
%TD*%
%TO.C,H2*%
X104394000Y-109728000D03*
%TD*%
%TO.C,H3*%
X53848000Y-36830000D03*
%TD*%
%TO.C,H4*%
X48260000Y-165100000D03*
%TD*%
%TO.C,H5*%
X72390000Y-71628000D03*
%TD*%
%TO.C,H6*%
X144780000Y-165100000D03*
%TD*%
D25*
%TO.C,SW11*%
X99949000Y-119253000D03*
X89789000Y-119253000D03*
D26*
X94869000Y-119253000D03*
D27*
X97409000Y-114173000D03*
X91059000Y-116713000D03*
%TD*%
D31*
%TO.C,BT1*%
X76080000Y-40640000D03*
X131690000Y-40640000D03*
D32*
X140335000Y-40640000D03*
D30*
X68335000Y-40640000D03*
%TD*%
%TO.C,H7*%
X135890000Y-71628000D03*
%TD*%
%TO.C,H8*%
X72390000Y-128778000D03*
%TD*%
%TO.C,H9*%
X135890000Y-128778000D03*
%TD*%
%TO.C,H10*%
X104394000Y-150622000D03*
%TD*%
M02*
