%TF.GenerationSoftware,KiCad,Pcbnew,(5.1.10-1-10_14)*%
%TF.CreationDate,2021-10-29T16:46:54+02:00*%
%TF.ProjectId,Proletariat,50726f6c-6574-4617-9269-61742e6b6963,rev?*%
%TF.SameCoordinates,Original*%
%TF.FileFunction,Paste,Bot*%
%TF.FilePolarity,Positive*%
%FSLAX46Y46*%
G04 Gerber Fmt 4.6, Leading zero omitted, Abs format (unit mm)*
G04 Created by KiCad (PCBNEW (5.1.10-1-10_14)) date 2021-10-29 16:46:54*
%MOMM*%
%LPD*%
G01*
G04 APERTURE LIST*
%ADD10R,2.550000X2.500000*%
G04 APERTURE END LIST*
D10*
%TO.C,SW2*%
X81661000Y-76073000D03*
X68734000Y-78613000D03*
%TD*%
%TO.C,SW3*%
X81661000Y-95123000D03*
X68734000Y-97663000D03*
%TD*%
%TO.C,SW4*%
X81661000Y-114173000D03*
X68734000Y-116713000D03*
%TD*%
%TO.C,SW5*%
X81661000Y-133223000D03*
X68734000Y-135763000D03*
%TD*%
%TO.C,SW6*%
X81661000Y-152273000D03*
X68734000Y-154813000D03*
%TD*%
%TO.C,SW7*%
X79502000Y-162433000D03*
X92429000Y-159893000D03*
%TD*%
%TO.C,SW8*%
X100711000Y-57023000D03*
X87784000Y-59563000D03*
%TD*%
%TO.C,SW9*%
X100711000Y-76073000D03*
X87784000Y-78613000D03*
%TD*%
%TO.C,SW10*%
X100711000Y-95123000D03*
X87784000Y-97663000D03*
%TD*%
%TO.C,SW13*%
X100711000Y-152273000D03*
X87784000Y-154813000D03*
%TD*%
%TO.C,SW14*%
X119761000Y-57023000D03*
X106834000Y-59563000D03*
%TD*%
%TO.C,SW15*%
X119761000Y-76073000D03*
X106834000Y-78613000D03*
%TD*%
%TO.C,SW16*%
X119761000Y-95123000D03*
X106834000Y-97663000D03*
%TD*%
%TO.C,SW17*%
X119761000Y-114173000D03*
X106834000Y-116713000D03*
%TD*%
%TO.C,SW18*%
X119761000Y-133223000D03*
X106834000Y-135763000D03*
%TD*%
%TO.C,SW19*%
X119761000Y-152273000D03*
X106834000Y-154813000D03*
%TD*%
%TO.C,SW20*%
X138811000Y-57023000D03*
X125884000Y-59563000D03*
%TD*%
%TO.C,SW21*%
X138811000Y-76073000D03*
X125884000Y-78613000D03*
%TD*%
%TO.C,SW22*%
X138811000Y-95123000D03*
X125884000Y-97663000D03*
%TD*%
%TO.C,SW23*%
X138811000Y-114173000D03*
X125884000Y-116713000D03*
%TD*%
%TO.C,SW24*%
X138811000Y-133223000D03*
X125884000Y-135763000D03*
%TD*%
%TO.C,SW25*%
X138811000Y-152273000D03*
X125884000Y-154813000D03*
%TD*%
%TO.C,SW26*%
X138811000Y-104648000D03*
X125884000Y-107188000D03*
%TD*%
%TO.C,SW27*%
X138811000Y-142748000D03*
X125884000Y-145288000D03*
%TD*%
%TO.C,SW1*%
X81661000Y-57023000D03*
X68734000Y-59563000D03*
%TD*%
%TO.C,SW12*%
X100711000Y-133223000D03*
X87784000Y-135763000D03*
%TD*%
%TO.C,SW11*%
X100711000Y-114173000D03*
X87784000Y-116713000D03*
%TD*%
M02*
