M48
; DRILL file {KiCad (5.1.10-1-10_14)} date Friday, October 29, 2021 at 04:46:56 PM
; FORMAT={-:-/ absolute / inch / decimal}
; #@! TF.CreationDate,2021-10-29T16:46:56+02:00
; #@! TF.GenerationSoftware,Kicad,Pcbnew,(5.1.10-1-10_14)
; #@! TF.FileFunction,NonPlated,1,2,NPTH
FMAT,2
INCH
T1C0.0689
T2C0.1181
T3C0.1260
T4C0.1575
%
G90
G05
T1
X2.785Y-2.445
X2.785Y-3.195
X2.785Y-3.945
X2.785Y-4.695
X2.785Y-5.445
X2.785Y-6.195
X3.16Y-6.195
X3.185Y-2.445
X3.185Y-3.195
X3.185Y-3.945
X3.185Y-4.695
X3.185Y-5.445
X3.185Y-6.195
X3.535Y-2.445
X3.535Y-3.195
X3.535Y-3.945
X3.535Y-4.695
X3.535Y-5.445
X3.535Y-6.195
X3.56Y-6.195
X3.935Y-2.445
X3.935Y-3.195
X3.935Y-3.945
X3.935Y-4.695
X3.935Y-5.445
X3.935Y-6.195
X4.285Y-2.445
X4.285Y-3.195
X4.285Y-3.945
X4.285Y-4.695
X4.285Y-5.445
X4.285Y-6.195
X4.685Y-2.445
X4.685Y-3.195
X4.685Y-3.945
X4.685Y-4.695
X4.685Y-5.445
X4.685Y-6.195
X5.035Y-2.445
X5.035Y-3.195
X5.035Y-3.945
X5.035Y-4.32
X5.035Y-4.695
X5.035Y-5.445
X5.035Y-5.82
X5.035Y-6.195
X5.435Y-2.445
X5.435Y-3.195
X5.435Y-3.945
X5.435Y-4.32
X5.435Y-4.695
X5.435Y-5.445
X5.435Y-5.82
X5.435Y-6.195
T2
X2.835Y-2.345
X2.835Y-3.095
X2.835Y-3.845
X2.835Y-4.595
X2.835Y-5.345
X2.835Y-6.095
X3.085Y-2.245
X3.085Y-2.995
X3.085Y-3.745
X3.085Y-4.495
X3.085Y-5.245
X3.085Y-5.995
X3.26Y-6.395
X3.51Y-6.295
X3.585Y-2.345
X3.585Y-3.095
X3.585Y-3.845
X3.585Y-4.595
X3.585Y-5.345
X3.585Y-6.095
X3.835Y-2.245
X3.835Y-2.995
X3.835Y-3.745
X3.835Y-4.495
X3.835Y-5.245
X3.835Y-5.995
X4.335Y-2.345
X4.335Y-3.095
X4.335Y-3.845
X4.335Y-4.595
X4.335Y-5.345
X4.335Y-6.095
X4.585Y-2.245
X4.585Y-2.995
X4.585Y-3.745
X4.585Y-4.495
X4.585Y-5.245
X4.585Y-5.995
X5.085Y-2.345
X5.085Y-3.095
X5.085Y-3.845
X5.085Y-4.22
X5.085Y-4.595
X5.085Y-5.345
X5.085Y-5.72
X5.085Y-6.095
X5.335Y-2.245
X5.335Y-2.995
X5.335Y-3.745
X5.335Y-4.12
X5.335Y-4.495
X5.335Y-5.245
X5.335Y-5.62
X5.335Y-5.995
T3
X2.9953Y-1.6
X5.1846Y-1.6
T4
X2.985Y-2.445
X2.985Y-3.195
X2.985Y-3.945
X2.985Y-4.695
X2.985Y-5.445
X2.985Y-6.195
X3.36Y-6.195
X3.735Y-2.445
X3.735Y-3.195
X3.735Y-3.945
X3.735Y-4.695
X3.735Y-5.445
X3.735Y-6.195
X4.485Y-2.445
X4.485Y-3.195
X4.485Y-3.945
X4.485Y-4.695
X4.485Y-5.445
X4.485Y-6.195
X5.235Y-2.445
X5.235Y-3.195
X5.235Y-3.945
X5.235Y-4.32
X5.235Y-4.695
X5.235Y-5.445
X5.235Y-5.82
X5.235Y-6.195
T0
M30
