M48
; DRILL file {KiCad (5.1.10-1-10_14)} date Friday, October 29, 2021 at 04:46:56 PM
; FORMAT={-:-/ absolute / inch / decimal}
; #@! TF.CreationDate,2021-10-29T16:46:56+02:00
; #@! TF.GenerationSoftware,Kicad,Pcbnew,(5.1.10-1-10_14)
; #@! TF.FileFunction,Plated,1,2,PTH
FMAT,2
INCH
T1C0.0157
T2C0.0295
T3C0.0320
T4C0.0394
T5C0.0433
T6C0.0787
T7C0.0866
%
G90
G05
T1
X1.835Y-4.92
X1.835Y-5.215
X1.84Y-5.51
X1.845Y-2.64
X1.93Y-3.07
X1.937Y-1.805
X1.97Y-3.07
X1.97Y-3.2
X1.97Y-3.265
X1.99Y-3.57
X2.05Y-3.2
X2.09Y-2.39
X2.09Y-2.43
X2.13Y-2.49
X2.235Y-2.115
X2.245Y-3.82
X2.29Y-2.46
X2.29Y-2.5
X2.435Y-3.09
X2.55Y-4.63
X2.55Y-5.48
X2.59Y-4.63
X2.59Y-5.48
X2.705Y-5.43
X2.705Y-5.82
X2.86Y-6.28
X2.97Y-5.865
X3.085Y-6.1
X3.085Y-6.255
X3.17Y-6.295
X3.18Y-5.04
X3.18Y-5.08
X3.18Y-5.12
X3.18Y-5.16
X3.225Y-6.1
X3.23Y-2.145
X3.2322Y-4.5878
X3.2322Y-5.0378
X3.24Y-5.37
X3.24Y-5.82
X3.315Y-5.99
X3.36Y-5.37
X3.36Y-5.82
X3.36Y-6.32
X3.36Y-6.42
X3.415Y-6.32
X3.415Y-6.42
X3.87Y-6.275
X3.9794Y-2.145
X3.9822Y-5.3678
X3.9822Y-5.8178
X4.015Y-5.04
X4.03Y-4.225
X4.03Y-5.1
X4.11Y-5.37
X4.11Y-5.82
X4.615Y-6.29
X4.73Y-2.145
X4.7322Y-5.3678
X4.7322Y-5.8178
X4.795Y-5.125
X4.83Y-5.16
X4.915Y-3.985
X4.92Y-5.495
X5.48Y-2.145
T2
X1.84Y-4.76
X1.84Y-5.06
X1.84Y-5.34
X1.84Y-5.64
X1.84Y-5.92
X1.84Y-6.22
X1.93Y-4.78
X1.93Y-5.08
X1.93Y-5.36
X1.93Y-5.66
X1.93Y-5.94
X1.93Y-6.24
X2.02Y-4.8
X2.02Y-5.1
X2.02Y-5.38
X2.02Y-5.68
X2.02Y-5.96
X2.02Y-6.26
X2.11Y-4.82
X2.11Y-5.12
X2.11Y-5.4
X2.11Y-5.7
X2.11Y-5.98
X2.11Y-6.28
X2.2Y-4.84
X2.2Y-5.14
X2.2Y-5.42
X2.2Y-5.72
X2.2Y-6.0
X2.2Y-6.3
X2.29Y-4.86
X2.29Y-5.16
X2.29Y-5.44
X2.29Y-5.74
X2.29Y-6.02
X2.29Y-6.32
X2.38Y-4.88
X2.38Y-5.18
X2.38Y-5.46
X2.38Y-5.76
X2.38Y-6.04
X2.38Y-6.34
X2.47Y-4.9
X2.47Y-5.2
X2.47Y-5.48
X2.47Y-5.78
X2.47Y-6.06
X2.47Y-6.36
X5.795Y-1.215
X5.795Y-1.515
T3
X1.985Y-2.61
X1.985Y-2.695
X2.085Y-2.61
X2.085Y-2.695
X2.185Y-2.61
X2.185Y-2.695
X2.285Y-2.61
X2.285Y-2.695
T4
X1.85Y-3.85
X1.85Y-3.9484
X1.85Y-4.0469
X1.86Y-3.1
X1.86Y-3.1984
X1.86Y-3.2969
X2.29Y-3.4781
X2.29Y-3.5766
X2.29Y-3.675
X5.662Y-1.261
X5.662Y-1.361
X5.662Y-1.461
T5
X1.83Y-1.3
X1.83Y-1.4
X1.83Y-1.5
X1.83Y-1.6
X1.83Y-1.7
X1.83Y-1.8
X1.83Y-1.9
X1.83Y-2.0
X1.83Y-2.1
X1.83Y-2.2
X1.83Y-2.3
X1.83Y-2.4
X2.0228Y-1.6
X2.0228Y-1.8559
X2.2Y-1.6
X2.2Y-1.8559
X2.43Y-1.3
X2.43Y-1.4
X2.43Y-1.5
X2.43Y-1.6
X2.43Y-1.7
X2.43Y-1.8
X2.43Y-1.9
X2.43Y-2.0
X2.43Y-2.1
X2.43Y-2.2
X2.43Y-2.3
X2.43Y-2.4
T6
X2.6904Y-1.6
X5.525Y-1.6
T7
X1.9Y-6.5
X1.9947Y-3.3561
X1.9947Y-3.797
X2.12Y-1.45
X2.85Y-2.82
X2.85Y-5.07
X4.11Y-4.32
X4.11Y-5.93
X5.35Y-1.45
X5.35Y-2.82
X5.35Y-5.07
X5.7Y-6.5
T6
G00X2.1354Y-3.728
M15
G01X2.1551Y-3.728
M16
G05
G00X2.1354Y-4.1689
M15
G01X2.1551Y-4.1689
M16
G05
G00X2.1454Y-2.978
M15
G01X2.1651Y-2.978
M16
G05
G00X2.1454Y-3.4189
M15
G01X2.1651Y-3.4189
M16
G05
T0
M30
