%TF.GenerationSoftware,KiCad,Pcbnew,(5.1.10-1-10_14)*%
%TF.CreationDate,2021-10-29T16:55:04+02:00*%
%TF.ProjectId,bottom,626f7474-6f6d-42e6-9b69-6361645f7063,rev?*%
%TF.SameCoordinates,Original*%
%TF.FileFunction,Legend,Bot*%
%TF.FilePolarity,Positive*%
%FSLAX46Y46*%
G04 Gerber Fmt 4.6, Leading zero omitted, Abs format (unit mm)*
G04 Created by KiCad (PCBNEW (5.1.10-1-10_14)) date 2021-10-29 16:55:04*
%MOMM*%
%LPD*%
G01*
G04 APERTURE LIST*
%ADD10C,0.150000*%
%ADD11C,3.500000*%
G04 APERTURE END LIST*
D10*
X62832571Y-102560380D02*
X62832571Y-101893714D01*
X62832571Y-102084190D02*
X62784952Y-101988952D01*
X62737333Y-101941333D01*
X62642095Y-101893714D01*
X62546857Y-101893714D01*
X62070666Y-102560380D02*
X62165904Y-102512761D01*
X62213523Y-102465142D01*
X62261142Y-102369904D01*
X62261142Y-102084190D01*
X62213523Y-101988952D01*
X62165904Y-101941333D01*
X62070666Y-101893714D01*
X61927809Y-101893714D01*
X61832571Y-101941333D01*
X61784952Y-101988952D01*
X61737333Y-102084190D01*
X61737333Y-102369904D01*
X61784952Y-102465142D01*
X61832571Y-102512761D01*
X61927809Y-102560380D01*
X62070666Y-102560380D01*
X61308761Y-102560380D02*
X61308761Y-101560380D01*
X61308761Y-101941333D02*
X61213523Y-101893714D01*
X61023047Y-101893714D01*
X60927809Y-101941333D01*
X60880190Y-101988952D01*
X60832571Y-102084190D01*
X60832571Y-102369904D01*
X60880190Y-102465142D01*
X60927809Y-102512761D01*
X61023047Y-102560380D01*
X61213523Y-102560380D01*
X61308761Y-102512761D01*
X60261142Y-102560380D02*
X60356380Y-102512761D01*
X60404000Y-102465142D01*
X60451619Y-102369904D01*
X60451619Y-102084190D01*
X60404000Y-101988952D01*
X60356380Y-101941333D01*
X60261142Y-101893714D01*
X60118285Y-101893714D01*
X60023047Y-101941333D01*
X59975428Y-101988952D01*
X59927809Y-102084190D01*
X59927809Y-102369904D01*
X59975428Y-102465142D01*
X60023047Y-102512761D01*
X60118285Y-102560380D01*
X60261142Y-102560380D01*
X59499238Y-101893714D02*
X59499238Y-102893714D01*
X59499238Y-101941333D02*
X59404000Y-101893714D01*
X59213523Y-101893714D01*
X59118285Y-101941333D01*
X59070666Y-101988952D01*
X59023047Y-102084190D01*
X59023047Y-102369904D01*
X59070666Y-102465142D01*
X59118285Y-102512761D01*
X59213523Y-102560380D01*
X59404000Y-102560380D01*
X59499238Y-102512761D01*
X58165904Y-101893714D02*
X58165904Y-102560380D01*
X58594476Y-101893714D02*
X58594476Y-102417523D01*
X58546857Y-102512761D01*
X58451619Y-102560380D01*
X58308761Y-102560380D01*
X58213523Y-102512761D01*
X58165904Y-102465142D01*
X57832571Y-101893714D02*
X57451619Y-101893714D01*
X57689714Y-102560380D02*
X57689714Y-101703238D01*
X57642095Y-101608000D01*
X57546857Y-101560380D01*
X57451619Y-101560380D01*
X57261142Y-101893714D02*
X56880190Y-101893714D01*
X57118285Y-102560380D02*
X57118285Y-101703238D01*
X57070666Y-101608000D01*
X56975428Y-101560380D01*
X56880190Y-101560380D01*
X56499238Y-102512761D02*
X56499238Y-102560380D01*
X56546857Y-102655619D01*
X56594476Y-102703238D01*
X55356380Y-101655619D02*
X55308761Y-101608000D01*
X55213523Y-101560380D01*
X54975428Y-101560380D01*
X54880190Y-101608000D01*
X54832571Y-101655619D01*
X54784952Y-101750857D01*
X54784952Y-101846095D01*
X54832571Y-101988952D01*
X55404000Y-102560380D01*
X54784952Y-102560380D01*
X54165904Y-101560380D02*
X54070666Y-101560380D01*
X53975428Y-101608000D01*
X53927809Y-101655619D01*
X53880190Y-101750857D01*
X53832571Y-101941333D01*
X53832571Y-102179428D01*
X53880190Y-102369904D01*
X53927809Y-102465142D01*
X53975428Y-102512761D01*
X54070666Y-102560380D01*
X54165904Y-102560380D01*
X54261142Y-102512761D01*
X54308761Y-102465142D01*
X54356380Y-102369904D01*
X54404000Y-102179428D01*
X54404000Y-101941333D01*
X54356380Y-101750857D01*
X54308761Y-101655619D01*
X54261142Y-101608000D01*
X54165904Y-101560380D01*
X53451619Y-101655619D02*
X53404000Y-101608000D01*
X53308761Y-101560380D01*
X53070666Y-101560380D01*
X52975428Y-101608000D01*
X52927809Y-101655619D01*
X52880190Y-101750857D01*
X52880190Y-101846095D01*
X52927809Y-101988952D01*
X53499238Y-102560380D01*
X52880190Y-102560380D01*
X51927809Y-102560380D02*
X52499238Y-102560380D01*
X52213523Y-102560380D02*
X52213523Y-101560380D01*
X52308761Y-101703238D01*
X52404000Y-101798476D01*
X52499238Y-101846095D01*
%LPC*%
D11*
%TO.C,H12*%
X41910000Y-58420000D03*
%TD*%
%TO.C,H11*%
X128397000Y-58420000D03*
%TD*%
%TO.C,H10*%
X92964000Y-154432000D03*
%TD*%
%TO.C,H9*%
X124460000Y-132588000D03*
%TD*%
%TO.C,H8*%
X60960000Y-132588000D03*
%TD*%
%TO.C,H7*%
X124460000Y-75438000D03*
%TD*%
%TO.C,H6*%
X133350000Y-168910000D03*
%TD*%
%TO.C,H5*%
X60960000Y-75438000D03*
%TD*%
%TO.C,H4*%
X36830000Y-168910000D03*
%TD*%
%TO.C,H3*%
X42418000Y-40640000D03*
%TD*%
%TO.C,H2*%
X92964000Y-113538000D03*
%TD*%
%TO.C,H1*%
X124460000Y-40640000D03*
%TD*%
M02*
