%TF.GenerationSoftware,KiCad,Pcbnew,(5.1.10-1-10_14)*%
%TF.CreationDate,2021-10-29T16:55:04+02:00*%
%TF.ProjectId,bottom,626f7474-6f6d-42e6-9b69-6361645f7063,rev?*%
%TF.SameCoordinates,Original*%
%TF.FileFunction,Copper,L2,Bot*%
%TF.FilePolarity,Positive*%
%FSLAX46Y46*%
G04 Gerber Fmt 4.6, Leading zero omitted, Abs format (unit mm)*
G04 Created by KiCad (PCBNEW (5.1.10-1-10_14)) date 2021-10-29 16:55:04*
%MOMM*%
%LPD*%
G01*
G04 APERTURE LIST*
%TA.AperFunction,NonConductor*%
%ADD10C,1.000000*%
%TD*%
%TA.AperFunction,NonConductor*%
%ADD11C,1.500000*%
%TD*%
%TA.AperFunction,ComponentPad*%
%ADD12C,3.500000*%
%TD*%
G04 APERTURE END LIST*
D10*
X129540000Y-93472000D02*
G75*
G02*
X116332000Y-106680000I-13208000J0D01*
G01*
X116332000Y-81280000D02*
G75*
G02*
X129540000Y-94488000I0J-13208000D01*
G01*
X40640000Y-94488000D02*
G75*
G02*
X53848000Y-81280000I13208000J0D01*
G01*
X53848000Y-106680000D02*
G75*
G02*
X40640000Y-93472000I0J13208000D01*
G01*
X116332000Y-81280000D02*
X53848000Y-81280000D01*
X53848000Y-106680000D02*
X116332000Y-106680000D01*
D11*
X118939285Y-91416428D02*
X118939285Y-100416428D01*
X118939285Y-91845000D02*
X118082142Y-91416428D01*
X116367857Y-91416428D01*
X115510714Y-91845000D01*
X115082142Y-92273571D01*
X114653571Y-93130714D01*
X114653571Y-95702142D01*
X115082142Y-96559285D01*
X115510714Y-96987857D01*
X116367857Y-97416428D01*
X118082142Y-97416428D01*
X118939285Y-96987857D01*
X110796428Y-97416428D02*
X110796428Y-91416428D01*
X110796428Y-93130714D02*
X110367857Y-92273571D01*
X109939285Y-91845000D01*
X109082142Y-91416428D01*
X108225000Y-91416428D01*
X103939285Y-97416428D02*
X104796428Y-96987857D01*
X105225000Y-96559285D01*
X105653571Y-95702142D01*
X105653571Y-93130714D01*
X105225000Y-92273571D01*
X104796428Y-91845000D01*
X103939285Y-91416428D01*
X102653571Y-91416428D01*
X101796428Y-91845000D01*
X101367857Y-92273571D01*
X100939285Y-93130714D01*
X100939285Y-95702142D01*
X101367857Y-96559285D01*
X101796428Y-96987857D01*
X102653571Y-97416428D01*
X103939285Y-97416428D01*
X95796428Y-97416428D02*
X96653571Y-96987857D01*
X97082142Y-96130714D01*
X97082142Y-88416428D01*
X88939285Y-96987857D02*
X89796428Y-97416428D01*
X91510714Y-97416428D01*
X92367857Y-96987857D01*
X92796428Y-96130714D01*
X92796428Y-92702142D01*
X92367857Y-91845000D01*
X91510714Y-91416428D01*
X89796428Y-91416428D01*
X88939285Y-91845000D01*
X88510714Y-92702142D01*
X88510714Y-93559285D01*
X92796428Y-94416428D01*
X85939285Y-91416428D02*
X82510714Y-91416428D01*
X84653571Y-88416428D02*
X84653571Y-96130714D01*
X84224999Y-96987857D01*
X83367857Y-97416428D01*
X82510714Y-97416428D01*
X75653571Y-97416428D02*
X75653571Y-92702142D01*
X76082142Y-91845000D01*
X76939285Y-91416428D01*
X78653571Y-91416428D01*
X79510714Y-91845000D01*
X75653571Y-96987857D02*
X76510714Y-97416428D01*
X78653571Y-97416428D01*
X79510714Y-96987857D01*
X79939285Y-96130714D01*
X79939285Y-95273571D01*
X79510714Y-94416428D01*
X78653571Y-93987857D01*
X76510714Y-93987857D01*
X75653571Y-93559285D01*
X71367857Y-97416428D02*
X71367857Y-91416428D01*
X71367857Y-93130714D02*
X70939285Y-92273571D01*
X70510714Y-91845000D01*
X69653571Y-91416428D01*
X68796428Y-91416428D01*
X65796428Y-97416428D02*
X65796428Y-91416428D01*
X65796428Y-88416428D02*
X66224999Y-88845000D01*
X65796428Y-89273571D01*
X65367857Y-88845000D01*
X65796428Y-88416428D01*
X65796428Y-89273571D01*
X57653571Y-97416428D02*
X57653571Y-92702142D01*
X58082142Y-91845000D01*
X58939285Y-91416428D01*
X60653571Y-91416428D01*
X61510714Y-91845000D01*
X57653571Y-96987857D02*
X58510714Y-97416428D01*
X60653571Y-97416428D01*
X61510714Y-96987857D01*
X61939285Y-96130714D01*
X61939285Y-95273571D01*
X61510714Y-94416428D01*
X60653571Y-93987857D01*
X58510714Y-93987857D01*
X57653571Y-93559285D01*
X54653571Y-91416428D02*
X51224999Y-91416428D01*
X53367857Y-88416428D02*
X53367857Y-96130714D01*
X52939285Y-96987857D01*
X52082142Y-97416428D01*
X51224999Y-97416428D01*
D12*
%TO.P,H12,1*%
%TO.N,N/C*%
X41910000Y-58420000D03*
%TD*%
%TO.P,H11,1*%
%TO.N,N/C*%
X128397000Y-58420000D03*
%TD*%
%TO.P,H10,1*%
%TO.N,N/C*%
X92964000Y-154432000D03*
%TD*%
%TO.P,H9,1*%
%TO.N,N/C*%
X124460000Y-132588000D03*
%TD*%
%TO.P,H8,1*%
%TO.N,N/C*%
X60960000Y-132588000D03*
%TD*%
%TO.P,H7,1*%
%TO.N,N/C*%
X124460000Y-75438000D03*
%TD*%
%TO.P,H6,1*%
%TO.N,N/C*%
X133350000Y-168910000D03*
%TD*%
%TO.P,H5,1*%
%TO.N,N/C*%
X60960000Y-75438000D03*
%TD*%
%TO.P,H4,1*%
%TO.N,N/C*%
X36830000Y-168910000D03*
%TD*%
%TO.P,H3,1*%
%TO.N,N/C*%
X42418000Y-40640000D03*
%TD*%
%TO.P,H2,1*%
%TO.N,N/C*%
X92964000Y-113538000D03*
%TD*%
%TO.P,H1,1*%
%TO.N,N/C*%
X124460000Y-40640000D03*
%TD*%
M02*
